<svg id="enJ8KX6URAg1" xmlns="http://www.w3.org/2000/svg" xmlns:xlink="http://www.w3.org/1999/xlink" viewBox="0 0 500 500" shape-rendering="geometricPrecision" text-rendering="geometricPrecision"><defs><filter id="enJ8KX6URAg2-filter" x="-150%" width="400%" y="-150%" height="400%"><feGaussianBlur id="enJ8KX6URAg2-filter-drop-shadow-0-blur" in="SourceAlpha" stdDeviation="3,5"/><feOffset id="enJ8KX6URAg2-filter-drop-shadow-0-offset" dx="2" dy="3" result="tmp"/><feFlood id="enJ8KX6URAg2-filter-drop-shadow-0-flood" flood-color="#5b1b74"/><feComposite id="enJ8KX6URAg2-filter-drop-shadow-0-composite" operator="in" in2="tmp"/><feMerge id="enJ8KX6URAg2-filter-drop-shadow-0-merge"><feMergeNode id="enJ8KX6URAg2-filter-drop-shadow-0-merge-node-1"/><feMergeNode id="enJ8KX6URAg2-filter-drop-shadow-0-merge-node-2" in="SourceGraphic"/></feMerge></filter><filter id="enJ8KX6URAg10-filter" x="-150%" width="400%" y="-150%" height="400%"><feGaussianBlur id="enJ8KX6URAg10-filter-drop-shadow-0-blur" in="SourceAlpha" stdDeviation="3,4"/><feOffset id="enJ8KX6URAg10-filter-drop-shadow-0-offset" dx="1" dy="2" result="tmp"/><feFlood id="enJ8KX6URAg10-filter-drop-shadow-0-flood" flood-color="#5c1c75"/><feComposite id="enJ8KX6URAg10-filter-drop-shadow-0-composite" operator="in" in2="tmp"/><feMerge id="enJ8KX6URAg10-filter-drop-shadow-0-merge"><feMergeNode id="enJ8KX6URAg10-filter-drop-shadow-0-merge-node-1"/><feMergeNode id="enJ8KX6URAg10-filter-drop-shadow-0-merge-node-2" in="SourceGraphic"/></feMerge></filter><filter id="enJ8KX6URAg39-filter" x="-150%" width="400%" y="-150%" height="400%"><feGaussianBlur id="enJ8KX6URAg39-filter-drop-shadow-0-blur" in="SourceAlpha" stdDeviation="3,4"/><feOffset id="enJ8KX6URAg39-filter-drop-shadow-0-offset" dx="1" dy="2" result="tmp"/><feFlood id="enJ8KX6URAg39-filter-drop-shadow-0-flood" flood-color="#5c1c75"/><feComposite id="enJ8KX6URAg39-filter-drop-shadow-0-composite" operator="in" in2="tmp"/><feMerge id="enJ8KX6URAg39-filter-drop-shadow-0-merge"><feMergeNode id="enJ8KX6URAg39-filter-drop-shadow-0-merge-node-1"/><feMergeNode id="enJ8KX6URAg39-filter-drop-shadow-0-merge-node-2" in="SourceGraphic"/></feMerge></filter><filter id="enJ8KX6URAg196-filter" x="-150%" width="400%" y="-150%" height="400%"><feGaussianBlur id="enJ8KX6URAg196-filter-drop-shadow-0-blur" in="SourceAlpha" stdDeviation="3,4"/><feOffset id="enJ8KX6URAg196-filter-drop-shadow-0-offset" dx="2" dy="3" result="tmp"/><feFlood id="enJ8KX6URAg196-filter-drop-shadow-0-flood" flood-color="#5b1b75"/><feComposite id="enJ8KX6URAg196-filter-drop-shadow-0-composite" operator="in" in2="tmp"/><feMerge id="enJ8KX6URAg196-filter-drop-shadow-0-merge"><feMergeNode id="enJ8KX6URAg196-filter-drop-shadow-0-merge-node-1"/><feMergeNode id="enJ8KX6URAg196-filter-drop-shadow-0-merge-node-2" in="SourceGraphic"/></feMerge></filter><filter id="enJ8KX6URAg317-filter" x="-150%" width="400%" y="-150%" height="400%"><feGaussianBlur id="enJ8KX6URAg317-filter-drop-shadow-0-blur" in="SourceAlpha" stdDeviation="0,0"/><feOffset id="enJ8KX6URAg317-filter-drop-shadow-0-offset" dx="0" dy="0" result="tmp"/><feFlood id="enJ8KX6URAg317-filter-drop-shadow-0-flood" flood-color="#5c1c75"/><feComposite id="enJ8KX6URAg317-filter-drop-shadow-0-composite" operator="in" in2="tmp"/><feMerge id="enJ8KX6URAg317-filter-drop-shadow-0-merge"><feMergeNode id="enJ8KX6URAg317-filter-drop-shadow-0-merge-node-1"/><feMergeNode id="enJ8KX6URAg317-filter-drop-shadow-0-merge-node-2" in="SourceGraphic"/></feMerge></filter></defs><g filter="url(#enJ8KX6URAg2-filter)"><path d="M422.36,247.16c-95.82-55.32-250.65-55.32-345.85,0s-94.69,145,1.12,200.33s250.66,55.32,345.86,0s94.69-145.01-1.13-200.33Z" fill="#f5f5f5"/></g><g><path d="M57.22,383.76c-6.73-3.88-17.6-3.88-24.28,0s-6.64,10.18.08,14.06s17.59,3.89,24.28,0s6.64-10.17-.08-14.06Z" fill="#e0e0e0"/><path d="M47.1,342.59l3.4,2c1.505867.859988,3.354133.859988,4.86,0l204.38-118c.600151-.346571.969845-.986969.969845-1.68s-.369694-1.333429-.969845-1.68l-3.47-2c-1.50567-.874088-3.36433-.874088-4.87,0l-204.3,118c-.600151.346571-.969845.986969-.969845,1.68s.369694,1.333429.969845,1.68Z" fill="#e0e0e0"/><path d="M69.19,364.54l1.17.68c.523435.299842,1.166565.299842,1.69,0L143,324.28c.20663-.122446.333337-.344815.333337-.585s-.126707-.462554-.333337-.585l-1.2-.7c-.527064-.29961-1.172936-.29961-1.7,0l-70.88,41c-.191943.121152-.310782.330087-.316806.556987s.101561.441847.286806.573013Z" fill="#e0e0e0"/><path d="M430,359.9l-55-31.85c-3.074337-1.779746-6.865663-1.779746-9.94,0L314.91,357l-51.49-29.62c-2.045141-1.180763-4.564859-1.180763-6.61,0l-89.68,51.79c-.337363.199857-.544248.562882-.544248.955s.206885.755143.544248.955L318,468c2.045141,1.180763,4.564859,1.180763,6.61,0l89.68-51.8c.342666-.195865.554129-.560306.554129-.955s-.211463-.759135-.554129-.955l-36-20.72L430,363.72c.679967-.395789,1.098245-1.123232,1.098245-1.91s-.418278-1.514211-1.098245-1.91Z" fill="#e0e0e0"/><path d="M467,386.86c-7.08-4.09-18.54-4.09-25.58,0s-7,10.73.08,14.82s18.55,4.09,25.59,0s6.99-10.68-.09-14.82Z" fill="#e0e0e0"/></g><g filter="url(#enJ8KX6URAg10-filter)"><path d="M61.4,361.42l-16.28.48-16.28-.48c-.7,11,1.44,22.2,4.4,27.68v0c.697962,1.407409,1.825716,2.556176,3.22,3.28c4.8,2.77,12.57,2.77,17.34,0c1.407349-.746728,2.531329-1.933932,3.2-3.38c3-5.49,5.1-16.64,4.4-27.58Z" fill="#fff"/><path d="M56.59,354.76c6.38,3.68,6.42,9.65.08,13.33s-16.65,3.69-23,0-6.41-9.65-.07-13.33s16.62-3.69,22.99,0Z" fill="#ebebeb"/><path d="M54.07,356.22c5,2.87,5,7.53.06,10.41s-13,2.87-18,0-5-7.54-.06-10.41s13.03-2.87,18,0Z" fill="#e0e0e0"/><g opacity="0.15"><path d="M54.07,356.22c5,2.87,5,7.53.06,10.41s-13,2.87-18,0-5-7.54-.06-10.41s13.03-2.87,18,0Z"/></g><path d="M36.82,328.11c-2.65-3.3-5.73-6.25-8.16-9.7-1.65-2.36-3-5.25-2.34-8.05.797461-2.613137,3.00524-4.549784,5.7-5c2.672572-.401293,5.398924.204563,7.65,1.7c2.225181,1.495613,4.179728,3.358857,5.78,5.51c9.157117,11.601409,13.490767,26.285678,12.1,41-.03372,1.695907-.57348,3.343044-1.55,4.73-1.189933,1.403265-3.08803,1.985192-4.86,1.49-4.44-1.32-3.85-7.31-4.58-10.84-.996793-4.838235-2.712485-9.499927-5.09-13.83-1.344784-2.466488-2.900593-4.811913-4.65-7.01Z" fill="#972dc2"/><path d="M36.82,328.11c-2.65-3.3-5.73-6.25-8.16-9.7-1.65-2.36-3-5.25-2.34-8.05.797461-2.613137,3.00524-4.549784,5.7-5c2.672572-.401293,5.398924.204563,7.65,1.7c2.225181,1.495613,4.179728,3.358857,5.78,5.51c9.157117,11.601409,13.490767,26.285678,12.1,41-.03372,1.695907-.57348,3.343044-1.55,4.73-1.189933,1.403265-3.08803,1.985192-4.86,1.49-4.44-1.32-3.85-7.31-4.58-10.84-.996793-4.838235-2.712485-9.499927-5.09-13.83-1.344784-2.466488-2.900593-4.811913-4.65-7.01Z" opacity="0.2" fill="#fff"/><path d="M51.45,355.32c-.174855-.032654-.303661-.182235-.31-.36-.31-7.12-2.63-31.42-19.37-45.21-.126691-.080804-.19569-.227207-.177373-.376353s.120691-.274502.26317-.322249.299715-.00939.404203.098602c17,14,19.34,38.57,19.65,45.77.008277.104154-.026697.207121-.096696.284689s-.168849.12289-.273304.125311Z" fill="#f0f0f0"/><path d="M53.9,356.09c-.712614,3.148495-2.676828,5.870952-5.44,7.54-2.563126,1.211289-5.412695,1.68564-8.23,1.37-2.854-.326377-5.657836-.997955-8.35-2-1.35-.45-2.84-1.06-3-2.73-.030379-.889739.335978-1.747013,1-2.34.271718-.267386.562482-.514702.87-.74.279987-.220472.397204-.589404.295813-.931048s-.400885-.586906-.755813-.618952c-.798681-.046091-1.59362-.142953-2.38-.29-1.837104-.298226-3.562345-1.078035-5-2.26-1.047311-.925883-1.842182-2.102705-2.31-3.42-.4-1.12-.52-2.52.33-3.36.527914-.437378,1.169739-.714924,1.85-.8.6-.13,1.19-.24,1.79-.33.347838-.05921.615811-.339311.659576-.689428s-.147015-.687563-.469576-.830572l-2.53-1.05c-.723318-.243055-1.380497-.65037-1.92-1.19-.653157-1.013897-.838927-2.259652-.51-3.42.31-1.58.85-3.11,1.22-4.68.445286-1.555682.503645-3.196615.17-4.78c4.735648-.526526,9.527234-.204829,14.15.95c1.392751.280707,2.70905.857014,3.86,1.69c1.58,1.26,2,3.15,1.82,5.2-.001954.168102.109666.316393.271747.361024s.333879-.025617.418253-.171024l1.61-3c.496297-.885,1.593118-1.234584,2.51-.8c1.413393.707284,2.668686,1.693829,3.69,2.9c1.143534,1.298763,1.713381,3.004699,1.58,4.73-.192433,2.339746-.587243,4.658418-1.18,6.93-.058617.260397.047913.530161.26863.680249s.510755.14999.73137-.000249L51,348c.433586-.332805.975119-.493127,1.52-.45c1.42.18,1.79,1.63,1.88,2.86.059635,1.906475-.108216,3.813262-.5,5.68Z" fill="#972dc2"/><path d="M53.9,356.09c-.712614,3.148495-2.676828,5.870952-5.44,7.54-2.563126,1.211289-5.412695,1.68564-8.23,1.37-2.854-.326377-5.657836-.997955-8.35-2-1.35-.45-2.84-1.06-3-2.73-.030379-.889739.335978-1.747013,1-2.34.271718-.267386.562482-.514702.87-.74.279987-.220472.397204-.589404.295813-.931048s-.400885-.586906-.755813-.618952c-.798681-.046091-1.59362-.142953-2.38-.29-1.837104-.298226-3.562345-1.078035-5-2.26-1.047311-.925883-1.842182-2.102705-2.31-3.42-.4-1.12-.52-2.52.33-3.36.527914-.437378,1.169739-.714924,1.85-.8.6-.13,1.19-.24,1.79-.33.347838-.05921.615811-.339311.659576-.689428s-.147015-.687563-.469576-.830572l-2.53-1.05c-.723318-.243055-1.380497-.65037-1.92-1.19-.653157-1.013897-.838927-2.259652-.51-3.42.31-1.58.85-3.11,1.22-4.68.445286-1.555682.503645-3.196615.17-4.78c4.735648-.526526,9.527234-.204829,14.15.95c1.392751.280707,2.70905.857014,3.86,1.69c1.58,1.26,2,3.15,1.82,5.2-.001954.168102.109666.316393.271747.361024s.333879-.025617.418253-.171024l1.61-3c.496297-.885,1.593118-1.234584,2.51-.8c1.413393.707284,2.668686,1.693829,3.69,2.9c1.143534,1.298763,1.713381,3.004699,1.58,4.73-.192433,2.339746-.587243,4.658418-1.18,6.93-.058617.260397.047913.530161.26863.680249s.510755.14999.73137-.000249L51,348c.433586-.332805.975119-.493127,1.52-.45c1.42.18,1.79,1.63,1.88,2.86.059635,1.906475-.108216,3.813262-.5,5.68Z" opacity="0.2"/><path d="M53.9,356.09c-.712614,3.148495-2.676828,5.870952-5.44,7.54-2.563126,1.211289-5.412695,1.68564-8.23,1.37-2.854-.326377-5.657836-.997955-8.35-2-1.35-.45-2.84-1.06-3-2.73-.030379-.889739.335978-1.747013,1-2.34.271718-.267386.562482-.514702.87-.74.279987-.220472.397204-.589404.295813-.931048s-.400885-.586906-.755813-.618952c-.798681-.046091-1.59362-.142953-2.38-.29-1.837104-.298226-3.562345-1.078035-5-2.26-1.047311-.925883-1.842182-2.102705-2.31-3.42-.4-1.12-.52-2.52.33-3.36.527914-.437378,1.169739-.714924,1.85-.8.6-.13,1.19-.24,1.79-.33.347838-.05921.615811-.339311.659576-.689428s-.147015-.687563-.469576-.830572l-2.53-1.05c-.723318-.243055-1.380497-.65037-1.92-1.19-.653157-1.013897-.838927-2.259652-.51-3.42.31-1.58.85-3.11,1.22-4.68.445286-1.555682.503645-3.196615.17-4.78c4.735648-.526526,9.527234-.204829,14.15.95c1.392751.280707,2.70905.857014,3.86,1.69c1.58,1.26,2,3.15,1.82,5.2-.001954.168102.109666.316393.271747.361024s.333879-.025617.418253-.171024l1.61-3c.496297-.885,1.593118-1.234584,2.51-.8c1.413393.707284,2.668686,1.693829,3.69,2.9c1.143534,1.298763,1.713381,3.004699,1.58,4.73-.192433,2.339746-.587243,4.658418-1.18,6.93-.058617.260397.047913.530161.26863.680249s.510755.14999.73137-.000249L51,348c.433586-.332805.975119-.493127,1.52-.45c1.42.18,1.79,1.63,1.88,2.86.059635,1.906475-.108216,3.813262-.5,5.68Z" opacity="0.2" fill="#fff"/><path d="M46.4,363.25c-.893279-3.786501-2.169865-7.472183-3.81-11-.000196-.110739-.04746-.216174-.13-.29l-.27-.58c.470706-4.420406,1.762859-8.714018,3.81-12.66.096214-.12042.112479-.28621.041502-.423032s-.215879-.219006-.369735-.2097-.287797.108353-.341767.252732c-1.902192,3.668281-3.160469,7.635913-3.72,11.73-3.22-6.46-8.36-14-16.29-19.53-.174352-.1226-.414835-.082519-.54.09-.118367.178676-.079145.418371.09.55c8.19,5.69,13.35,13.58,16.49,20.13-4.222607-1.910465-8.91208-2.543144-13.49-1.82-.208711.040437-.346588.24058-.31.45.032462.155802.154198.277538.31.31h.13c.07,0,7.48-1.36,13.88,2.22c1.622732,3.503137,2.885866,7.161871,3.77,10.92.034772.154542.155458.275228.31.31h.15c.200611-.049493.327804-.246861.29-.45Z" fill="#f0f0f0"/><path d="M471.4,363.31l-17.16.5-17.15-.5c-.74,11.59,1.52,23.4,4.64,29.17v0c.73963,1.480863,1.930092,2.688831,3.4,3.45c5.06,2.93,13.24,2.93,18.27,0c1.495046-.769631,2.69129-2.015131,3.4-3.54c3.1-5.8,5.34-17.55,4.6-29.08Z" fill="#fff"/><path d="M466.34,356.29c6.72,3.88,6.76,10.17.08,14s-17.55,3.88-24.27,0-6.76-10.17-.08-14s17.54-3.89,24.27,0Z" fill="#ebebeb"/><path d="M463.68,357.83c5.24,3,5.27,7.94.06,11s-13.69,3-18.93,0-5.27-7.94-.06-11s13.68-3.03,18.93,0Z" fill="#e0e0e0"/><g opacity="0.15"><path d="M463.68,357.83c5.24,3,5.27,7.94.06,11s-13.69,3-18.93,0-5.27-7.94-.06-11s13.68-3.03,18.93,0Z"/></g><path d="M482.46,290.09c-38.67,12.66-39,38.53-30.31,57c2.2,3.72,8.86,5.73,14.65-17.18l-10.16,1.3l11.84-6l3.07-9.19-9.87.73l12.53-5.27c2.301823-7.294865,5.05719-14.438783,8.25-21.39Z" fill="#972dc2"/><path d="M482.46,290.09c-38.67,12.66-39,38.53-30.31,57c2.2,3.72,8.86,5.73,14.65-17.18l-10.16,1.3l11.84-6l3.07-9.19-9.87.73l12.53-5.27c2.301823-7.294865,5.05719-14.438783,8.25-21.39Z" opacity="0.2"/><path d="M482.46,290.09c-38.67,12.66-39,38.53-30.31,57c2.2,3.72,8.86,5.73,14.65-17.18l-10.16,1.3l11.84-6l3.07-9.19-9.87.73l12.53-5.27c2.301823-7.294865,5.05719-14.438783,8.25-21.39Z" opacity="0.2" fill="#fff"/><path d="M471.52,296.56c-20.39,15.48-22.23,33.22-16.47,51.75-2.05-16.31-4.24-32.81,16.47-51.75Z" fill="#fff"/><path d="M417,316.37c38.12,5.37,42.74,29.4,37.68,48-1.42,3.84-7.29,6.81-16.49-13.57l9.68-.47-12-3.62-4.39-8.05l9.31-1-12.54-2.83c-3.367691-6.378329-7.124795-12.543319-11.25-18.46Z" fill="#972dc2"/><path d="M417,316.37c38.12,5.37,42.74,29.4,37.68,48-1.42,3.84-7.29,6.81-16.49-13.57l9.68-.47-12-3.62-4.39-8.05l9.31-1-12.54-2.83c-3.367691-6.378329-7.124795-12.543319-11.25-18.46Z" opacity="0.2" fill="#fff"/><path d="M417,316.37c38.12,5.37,42.74,29.4,37.68,48-1.42,3.84-7.29,6.81-16.49-13.57l9.68-.47-12-3.62-4.39-8.05l9.31-1-12.54-2.83c-3.367691-6.378329-7.124795-12.543319-11.25-18.46Z" opacity="0.1"/><path d="M428.22,320.58c21.56,11,26.23,27.24,23.94,45.45-.81-15.53-1.5-31.25-23.94-45.45Z" fill="#fff"/><path d="M493.61,325.38c-34.95.57-41.81,21.71-39.33,39.05.85,3.62,5.81,6.95,16.38-10.38L462,352.54l11.24-1.92l4.86-6.76-8.3-1.86l11.62-1.14c3.737532-5.408427,7.808769-10.578465,12.19-15.48Z" fill="#972dc2"/><path d="M483,327.91c-20.67,7.52-26.68,21.62-26.66,38.29c2.46-13.91,4.84-28,26.66-38.29Z" fill="#fff"/><path d="M493.61,325.38c-34.95.57-41.81,21.71-39.33,39.05.85,3.62,5.81,6.95,16.38-10.38L462,352.54l11.24-1.92l4.86-6.76-8.3-1.86l11.62-1.14c3.737532-5.408427,7.808769-10.578465,12.19-15.48Z" opacity="0.2" fill="#fff"/></g><g filter="url(#enJ8KX6URAg39-filter)"><path d="M51.3,306.46L51,149.68c.261471-4.926781,2.863181-9.431456,7-12.12L252.83,25.33c1.92-1.11,3.67-1.22,4.94-.51l-7.33-4.25v0c-1.29-.82-3.1-.75-5.1.41L50.46,133.22c-4.135275,2.68535-6.737003,7.186339-7,12.11l.35,156.78c0,2.1.72,3.6,1.87,4.38v0c.122776.088305.253311.165287.39.23l7.24,4.21c-1.23-.74-2-2.28-2.01-4.47Z" fill="#972dc2"/><path d="M250.44,20.57v0c-1.29-.82-3.1-.75-5.1.41L50.46,133.22c-2.313341,1.458533-4.17053,3.537476-5.36,6l7.49,4.33c1.197471-2.457162,3.052886-4.534119,5.36-6L252.83,25.33c1.92-1.11,3.67-1.22,4.94-.51Z" opacity="0.4" fill="#fff"/><path d="M43.46,145.33l.35,156.78c0,2.1.72,3.6,1.87,4.38v0c.122776.088305.253311.165287.39.23l7.24,4.21c-1.24-.74-2-2.28-2-4.47L51,149.68c.065705-2.152126.626918-4.260098,1.64-6.16l-7.49-4.33c-1.035366,1.886496-1.614177,3.989395-1.69,6.14Z" opacity="0.3" fill="#fff"/><path d="M51,158.77l.33,147.69c0,2.19.78,3.73,2,4.47.032698.029051.069834.052684.11.07v0c1.26.67,3,.54,4.87-.55L253.23,198.24c4.138923-2.681884,6.741827-7.184908,7-12.11L259.9,38.19Z" fill="#972dc2"/><path d="M51,158.77l.33,147.69c0,2.19.78,3.73,2,4.47.032698.029051.069834.052684.11.07v0c1.26.67,3,.54,4.87-.55L253.23,198.24c4.138923-2.681884,6.741827-7.184908,7-12.11L259.9,38.19Z" opacity="0.4"/><path d="M259.87,29.35c0-2.19-.78-3.74-2-4.48h-.05c-1.27-.71-3-.6-4.94.51L58,137.56c-4.136819,2.688544-6.738529,7.193219-7,12.12v9.09L259.89,38.19Z" fill="#972dc2"/><g opacity="0.5"><path d="M60.23,143.92c1.06-.61,1.92-.12,1.92,1.09-.073512,1.341788-.783153,2.567869-1.91,3.3-1.05.61-1.91.12-1.92-1.09.073512-1.341788.783153-2.567869,1.91-3.3Z" fill="#fff"/><path d="M65.46,140.9c1.06-.61,1.91-.12,1.92,1.09-.070384,1.345385-.780397,2.575826-1.91,3.31-1.06.61-1.92.12-1.92-1.1.073512-1.341788.783153-2.567869,1.91-3.3Z" fill="#fff"/><path d="M70.68,137.88c1.06-.61,1.92-.12,1.92,1.09-.066517,1.343997-.772989,2.574746-1.9,3.31-1.06.61-1.92.12-1.92-1.1.069652-1.340404.775752-2.566787,1.9-3.3Z" fill="#fff"/></g><g opacity="0.39"><path d="M60.23,143.92c1.06-.61,1.92-.12,1.92,1.09-.073512,1.341788-.783153,2.567869-1.91,3.3-1.05.61-1.91.12-1.92-1.09.073512-1.341788.783153-2.567869,1.91-3.3Z" fill="#fff"/><path d="M65.46,140.9c1.06-.61,1.91-.12,1.92,1.09-.070384,1.345385-.780397,2.575826-1.91,3.31-1.06.61-1.92.12-1.92-1.1.073512-1.341788.783153-2.567869,1.91-3.3Z" fill="#fff"/><path d="M70.68,137.88c1.06-.61,1.92-.12,1.92,1.09-.066517,1.343997-.772989,2.574746-1.9,3.31-1.06.61-1.92.12-1.92-1.1.069652-1.340404.775752-2.566787,1.9-3.3Z" fill="#fff"/></g><polygon points="199.38,172.5 226.79,156.68 226.78,153.21 199.37,169.03 199.38,172.5" fill="#fff"/><polygon points="238.37,146.51 230.62,150.99 230.63,154.46 238.38,149.98 238.37,146.51" fill="#fff"/><polygon points="186.98,188.26 250.46,151.61 250.45,148.14 186.97,184.79 186.98,188.26" fill="#fff"/><polygon points="181.13,191.64 181.12,188.17 173.36,192.65 173.37,196.11 181.13,191.64" fill="#fff"/><polygon points="195.32,171.37 157.93,192.96 157.94,196.43 195.34,174.84 195.32,171.37" fill="#fff"/><polygon points="161.76,173.55 154.01,178.03 154.02,181.5 161.77,177.02 161.76,173.55" fill="#fff"/><polygon points="152.65,199.48 152.64,196.01 128.16,210.15 128.17,213.62 152.65,199.48" fill="#fff"/><polygon points="116.83,233.88 116.84,237.35 140.46,223.71 140.45,220.25 116.83,233.88" fill="#fff"/><polygon points="167.55,199.48 167.54,196.01 128.18,218.73 128.19,222.2 167.55,199.48" fill="#fff"/><polygon points="208.1,158.87 215.86,154.39 215.85,150.92 208.09,155.4 208.1,158.87" fill="#972dc2"/><polygon points="179.59,171.86 179.6,175.33 202.09,162.34 202.08,158.87 179.59,171.86" fill="#972dc2"/><polygon points="146.67,194.34 172.24,179.57 172.23,176.11 146.66,190.87 146.67,194.34" fill="#972dc2"/><polygon points="139.26,198.62 139.25,195.15 116.76,208.13 116.77,211.6 139.26,198.62" fill="#972dc2"/><polygon points="107.05,208.62 148.37,184.76 148.36,181.29 107.04,205.15 107.05,208.62" fill="#fff"/><polygon points="172.14,145.24 172.13,141.77 106.17,179.85 106.18,183.32 172.14,145.24" fill="#fff"/><polygon points="129.55,161.24 129.54,157.76 106.15,171.27 106.16,174.74 129.55,161.24" fill="#fff"/><polygon points="136.29,145.27 106.12,162.68 106.13,166.16 136.3,148.75 136.29,145.27" fill="#fff"/><polygon points="137.56,156.61 201.05,119.96 201.04,116.48 137.55,153.14 137.56,156.61" fill="#fff"/><polygon points="160.15,131.49 143.54,141.08 143.56,144.55 160.16,134.97 160.15,131.49" fill="#fff"/><polygon points="121.73,127.88 82.39,150.6 82.39,154.07 121.74,131.35 121.73,127.88" fill="#972dc2"/><polygon points="106.3,145.39 82.41,159.18 82.42,162.65 106.31,148.86 106.3,145.39" fill="#972dc2"/><polygon points="116.7,142.86 190.99,99.97 190.98,96.5 116.69,139.39 116.7,142.86" fill="#972dc2"/><polygon points="221.86,82.14 221.85,78.67 198.31,92.27 198.32,95.73 221.86,82.14" fill="#972dc2"/><polygon points="240.85,71.18 240.85,67.71 229.07,74.5 229.08,77.97 240.85,71.18" fill="#972dc2"/><polygon points="117.82,147.33 94.38,160.87 94.39,164.34 117.83,150.8 117.82,147.33" fill="#fff"/><polygon points="217.56,106.94 207.11,112.97 207.12,116.45 217.57,110.42 217.56,106.94" fill="#fff"/><polygon points="250.29,91.53 250.28,88.05 222.87,103.87 222.88,107.35 250.29,91.53" fill="#fff"/><polygon points="192.51,150.68 192.5,147.2 128.59,184.1 128.6,187.57 192.51,150.68" fill="#972dc2"/><polygon points="121.3,188.31 94.5,203.78 94.51,207.26 121.31,191.78 121.3,188.31" fill="#972dc2"/><polygon points="107.85,187.48 94.47,195.2 94.48,198.68 107.86,190.96 107.85,187.48" fill="#972dc2"/><polygon points="206.27,202.92 214.03,198.44 214.02,194.96 206.26,199.44 206.27,202.92" fill="#972dc2"/><polygon points="201.06,205.93 201.05,202.45 176.19,216.81 176.2,220.28 201.06,205.93" fill="#972dc2"/><polygon points="250.55,182.47 141.48,245.44 141.49,248.91 250.56,185.95 250.55,182.47" fill="#972dc2"/><polygon points="171,219.8 141.46,236.86 141.47,240.33 171.01,223.28 171,219.8" fill="#972dc2"/><polygon points="116.9,259.63 116.91,263.11 135.97,252.1 135.96,248.63 116.9,259.63" fill="#972dc2"/><polygon points="135.93,240.04 106.39,257.1 106.4,260.58 135.94,243.52 135.93,240.04" fill="#972dc2"/><polygon points="121.88,239.56 106.37,248.52 106.38,252 121.89,243.04 121.88,239.56" fill="#972dc2"/><g opacity="0.3"><polygon points="208.1,158.87 215.86,154.39 215.85,150.92 208.09,155.4 208.1,158.87" fill="#fff"/><polygon points="179.59,171.86 179.6,175.33 202.09,162.34 202.08,158.87 179.59,171.86" fill="#fff"/><polygon points="146.67,194.34 172.24,179.57 172.23,176.11 146.66,190.87 146.67,194.34" fill="#fff"/><polygon points="139.26,198.62 139.25,195.15 116.76,208.13 116.77,211.6 139.26,198.62" fill="#fff"/></g><g opacity="0.3"><polygon points="121.73,127.88 82.39,150.6 82.39,154.07 121.74,131.35 121.73,127.88" fill="#fff"/><polygon points="106.3,145.39 82.41,159.18 82.42,162.65 106.31,148.86 106.3,145.39" fill="#fff"/><polygon points="116.7,142.86 190.99,99.97 190.98,96.5 116.69,139.39 116.7,142.86" fill="#fff"/><polygon points="221.86,82.14 221.85,78.67 198.31,92.27 198.32,95.73 221.86,82.14" fill="#fff"/><polygon points="240.85,71.18 240.85,67.71 229.07,74.5 229.08,77.97 240.85,71.18" fill="#fff"/></g><g opacity="0.3"><polygon points="192.51,150.68 192.5,147.2 128.59,184.1 128.6,187.57 192.51,150.68" fill="#fff"/><polygon points="121.3,188.31 94.5,203.78 94.51,207.26 121.31,191.78 121.3,188.31" fill="#fff"/><polygon points="107.85,187.48 94.47,195.2 94.48,198.68 107.86,190.96 107.85,187.48" fill="#fff"/></g><g opacity="0.3"><polygon points="206.27,202.92 214.03,198.44 214.02,194.96 206.26,199.44 206.27,202.92" fill="#fff"/><polygon points="201.06,205.93 201.05,202.45 176.19,216.81 176.2,220.28 201.06,205.93" fill="#fff"/><polygon points="250.55,182.47 141.48,245.44 141.49,248.91 250.56,185.95 250.55,182.47" fill="#fff"/><polygon points="171,219.8 141.46,236.86 141.47,240.33 171.01,223.28 171,219.8" fill="#fff"/><polygon points="116.9,259.63 116.91,263.11 135.97,252.1 135.96,248.63 116.9,259.63" fill="#fff"/><polygon points="135.93,240.04 106.39,257.1 106.4,260.58 135.94,243.52 135.93,240.04" fill="#fff"/><polygon points="121.88,239.56 106.37,248.52 106.38,252 121.89,243.04 121.88,239.56" fill="#fff"/></g><polygon points="64.94,191.8 64.97,200.4 64.94,191.8 64.94,191.8" fill="#fff"/><polygon points="64.97,203.7 72.45,199.38 72.45,199.38 64.97,203.7 65,212.29 65,212.29 64.97,203.7" fill="#fff"/><rect width="8.64" height="0" rx="0" ry="0" transform="matrix(.866025-.5 0.5 0.866025 65.003049 215.590768)" fill="#fff"/><rect width="8.64" height="0" rx="0" ry="0" transform="matrix(.866025-.5 0.5 0.866025 65.12698 258.845022)" fill="#fff"/><polygon points="72.38,172.29 64.9,176.61 72.38,172.29 72.38,172.29" fill="#fff"/><polygon points="69.22,177.41 64.91,179.9 64.93,188.5 64.91,179.9 69.22,177.41" fill="#fff"/><polygon points="72.41,184.18 64.93,188.5 72.41,184.18 72.41,184.18" fill="#fff"/><polygon points="72.44,196.08 64.97,200.4 72.44,196.08 72.44,196.08" fill="#fff"/><polygon points="69.48,268.25 65.16,270.75 65.19,279.34 65.19,279.34 65.16,270.75 69.48,268.25" fill="#fff"/><rect width="8.64" height="0" rx="0" ry="0" transform="matrix(.866025-.5 0.5 0.866025 65.061354 235.05728)" fill="#fff"/><rect width="8.64" height="0" rx="0" ry="0" transform="matrix(.866025-.5 0.5 0.866025 65.105997 246.952982)" fill="#fff"/><polygon points="72.42,187.48 64.94,191.8 64.97,200.4 72.44,196.08 72.42,187.48" fill="#fff"/><polygon points="65,212.29 72.48,207.97 72.45,199.38 64.97,203.7 65,212.29" fill="#fff"/><polygon points="72.58,242.64 65.1,246.96 65.12,255.55 72.6,251.23 72.58,242.64" fill="#fff"/><polygon points="65.16,267.44 72.63,263.13 72.61,254.53 65.13,258.85 65.16,267.44" fill="#fff"/><polygon points="72.54,230.74 65.06,235.06 65.09,243.66 72.57,239.34 72.54,230.74" fill="#fff"/><path d="M74.94,226.58l-12.3,7.11.18,61.71l12.3-7.1Zm-2.33,27.95v8.6l-7.48,4.31v-8.59v0l7.48-4.32Zm-7.55-19.47v0l7.48-4.32v0v8.6l-7.48,4.31Zm0,11.9v0l7.48-4.32v0v8.59l-7.48,4.32Zm.09,32.38v-8.59l4.32-2.5l3.16-1.82v8.59l-7.48,4.32Zm0,11.89v-8.59l7.48-4.32v8.59Z" fill="#972dc2"/><path d="M74.75,159.53l-12.3,7.1.18,61.72l12.3-7.1ZM64.87,168l7.48-4.32v8.6v0l-7.48,4.32Zm0,11.89l4.31-2.49l3.17-1.82v8.59v0l-7.48,4.32Zm0,11.9v0l7.48-4.32v8.6v0L65,200.4Zm0,11.9l7.48-4.32v0v8.6L65,212.29v0Zm0,11.89v0l7.48-4.32v0v8.6L65,224.18Z" fill="#972dc2"/><path d="M74.94,226.58l-12.3,7.11.18,61.71l12.3-7.1Zm-2.33,27.95v8.6l-7.48,4.31v-8.59v0l7.48-4.32Zm-7.55-19.47v0l7.48-4.32v0v8.6l-7.48,4.31Zm0,11.9v0l7.48-4.32v0v8.59l-7.48,4.32Zm.09,32.38v-8.59l4.32-2.5l3.16-1.82v8.59l-7.48,4.32Zm0,11.89v-8.59l7.48-4.32v8.59Z" opacity="0.3" fill="#fff"/><path d="M74.75,159.53l-12.3,7.1.18,61.72l12.3-7.1ZM64.87,168l7.48-4.32v8.6v0l-7.48,4.32Zm0,11.89l4.31-2.49l3.17-1.82v8.59v0l-7.48,4.32Zm0,11.9v0l7.48-4.32v8.6v0L65,200.4Zm0,11.9l7.48-4.32v0v8.6L65,212.29v0Zm0,11.89v0l7.48-4.32v0v8.6L65,224.18Z" opacity="0.3" fill="#fff"/><polygon points="72.41,184.18 72.39,175.59 69.22,177.41 64.91,179.9 64.93,188.5 72.41,184.18 72.41,184.18" fill="#fff"/><polygon points="74.75,159.53 74.74,154.74 62.44,161.84 62.45,166.63 74.75,159.53 74.75,159.53" fill="#fff"/><polygon points="72.38,172.29 72.35,163.69 64.87,168.01 64.9,176.61 72.38,172.29 72.38,172.29" fill="#fff"/><polygon points="72.49,211.27 72.49,211.27 65.01,215.59 65.01,215.59 65.03,224.19 72.51,219.87 72.49,211.27" fill="#fff"/><polygon points="72.67,275.02 72.64,266.43 69.48,268.25 65.16,270.75 65.19,279.34 65.19,279.34 72.67,275.02" fill="#fff"/><polygon points="65.2,282.64 65.22,291.23 72.7,286.92 72.68,278.32 65.2,282.64" fill="#fff"/><path d="M220.86,104.08v-3.32c.082843-1.451524.851408-2.77702,2.07-3.57l59.75-34.5c.438782-.317882,1.019538-.36047,1.5-.11v0l2,1.46c0,0-1.32.83-1.32.86h-.13v4.69L222.84,105.3Z" fill="#972dc2"/><path d="M220.86,104.08v-3.32c.082843-1.451524.851408-2.77702,2.07-3.57l59.75-34.5c.438782-.317882,1.019538-.36047,1.5-.11v0l2,1.46c0,0-1.32.83-1.32.86h-.13v4.69L222.84,105.3Z" opacity="0.7" fill="#fff"/><path d="M222.84,105.3l61.91-35.75.12,42.47c-.07031,1.450179-.832961,2.778308-2.05,3.57l-58.83,34l.54.67-1,1.42-2-1.46v0c-.379876-.307284-.582247-.783231-.54-1.27l-.13-44.83Z" fill="#37474f"/><path d="M224.89,98.62c-1.220535.785076-1.987544,2.110586-2.06,3.56v3.12l63.88-36.89v-3.11c0-1.31-.93-1.84-2.07-1.18Z" fill="#972dc2"/><g opacity="0.5"><path d="M224.89,98.62c-1.220535.785076-1.987544,2.110586-2.06,3.56v3.12l63.88-36.89v-3.11c0-1.31-.93-1.84-2.07-1.18Z" fill="#fff"/></g><path d="M222.84,105.3l.12,45c0,1.31.94,1.84,2.08,1.18L284.79,117c1.215649-.789727,1.981077-2.112504,2.06-3.56l-.13-45Z" fill="#455a64"/><polygon points="265.74,117.78 265.75,119.66 283.48,109.42 283.48,107.54 265.74,117.78" fill="#972dc2"/><polygon points="226.06,112.75 226.07,114.63 271.7,88.28 271.7,86.4 226.06,112.75" fill="#972dc2"/><polygon points="265.65,85.83 265.66,87.71 283.39,77.47 283.39,75.59 265.65,85.83" fill="#972dc2"/><g opacity="0.5"><polygon points="265.74,117.78 265.75,119.66 283.48,109.42 283.48,107.54 265.74,117.78" fill="#fff"/><polygon points="226.06,112.75 226.07,114.63 271.7,88.28 271.7,86.4 226.06,112.75" fill="#fff"/><polygon points="265.65,85.83 265.66,87.71 283.39,77.47 283.39,75.59 265.65,85.83" fill="#fff"/><polygon points="265.71,106.14 265.72,108.02 283.45,97.78 283.44,95.9 265.71,106.14" fill="#fff"/><polygon points="271.02,94.95 271.03,96.83 283.43,89.67 283.42,87.79 271.02,94.95" fill="#fff"/><polygon points="248.97,131.53 248.97,133.41 271.79,120.23 271.79,118.36 248.97,131.53" fill="#fff"/><polygon points="243.26,126.68 243.27,128.56 271.77,112.11 271.76,110.22 243.26,126.68" fill="#fff"/><polygon points="257.59,98.07 257.59,99.95 271.71,91.8 271.71,89.92 257.59,98.07" fill="#fff"/><polygon points="236.94,118.69 236.95,120.57 271.74,100.48 271.73,98.6 236.94,118.69" fill="#fff"/><polygon points="226.12,133.06 226.13,134.94 271.76,108.59 271.75,106.71 226.12,133.06" fill="#fff"/></g><path d="M67.85,290.64v-3.81c.087342-1.667489.968632-3.192082,2.37-4.1l68.58-39.59c.503555-.3707,1.17339-.424906,1.73-.14v0l2.32,1.67c0,0-1.51,1-1.51,1h-.16v5.33L70.11,292Z" fill="#972dc2"/><path d="M67.85,290.64v-3.81c.087342-1.667489.968632-3.192082,2.37-4.1l68.58-39.59c.503555-.3707,1.17339-.424906,1.73-.14v0l2.32,1.67c0,0-1.51,1-1.51,1h-.16v5.33L70.11,292Z" opacity="0.3" fill="#fff"/><path d="M70.11,292l71.08-41l.14,48.76c-.092077,1.663414-.972602,3.18297-2.37,4.09l-67.53,39l.62.77-1.13,1.62-2.31-1.67v0c-.43431-.358682-.662757-.909201-.61-1.47l-.15-51.46Z" fill="#37474f"/><path d="M72.47,284.37c-1.396193.908175-2.27633,2.427062-2.37,4.09v3.54l73.33-42.34v-3.57c0-1.51-1.07-2.11-2.37-1.36Z" fill="#972dc2"/><g opacity="0.1"><path d="M72.47,284.37c-1.396193.908175-2.27633,2.427062-2.37,4.09v3.54l73.33-42.34v-3.57c0-1.51-1.07-2.11-2.37-1.36Z" fill="#fff"/></g><path d="M70.11,292l.15,51.69c0,1.51,1.07,2.11,2.38,1.36l68.59-39.6c1.393588-.909258,2.270184-2.428443,2.36-4.09l-.15-51.7Z" fill="#455a64"/><polygon points="73.92,333 73.93,335.16 94.28,323.41 94.28,321.25 73.92,333" fill="#972dc2"/><polygon points="73.88,319.64 73.89,321.8 94.25,310.05 94.24,307.89 73.88,319.64" fill="#972dc2"/><polygon points="73.88,310.46 73.89,312.62 88.12,304.4 88.11,302.24 73.88,310.46" fill="#972dc2"/><polygon points="88.16,329.04 88.17,331.19 114.36,316.07 114.35,313.92 88.16,329.04" fill="#972dc2"/><polygon points="88.23,319.79 88.23,321.94 120.95,303.06 120.94,300.9 88.23,319.79" fill="#972dc2"/><polygon points="87.03,297.13 87.04,299.29 103.25,289.93 103.24,287.77 87.03,297.13" fill="#972dc2"/><polygon points="88.25,305.87 88.26,308.03 128.19,284.98 128.18,282.82 88.25,305.87" fill="#972dc2"/><polygon points="88.23,315.91 88.23,318.07 140.62,287.82 140.61,285.67 88.23,315.91" fill="#972dc2"/><polygon points="86.96,293.27 86.97,295.43 139.35,265.18 139.35,263.02 86.96,293.27" fill="#972dc2"/><polygon points="73.82,296.32 73.82,298.48 94.18,286.73 94.17,284.57 73.82,296.32" fill="#972dc2"/><g opacity="0.5"><polygon points="73.92,333 73.93,335.16 94.28,323.41 94.28,321.25 73.92,333" fill="#fff"/><polygon points="73.88,319.64 73.89,321.8 94.25,310.05 94.24,307.89 73.88,319.64" fill="#fff"/><polygon points="73.88,310.46 73.89,312.62 88.12,304.4 88.11,302.24 73.88,310.46" fill="#fff"/><polygon points="88.16,329.04 88.17,331.19 114.36,316.07 114.35,313.92 88.16,329.04" fill="#fff"/><polygon points="88.23,319.79 88.23,321.94 120.95,303.06 120.94,300.9 88.23,319.79" fill="#fff"/><polygon points="87.03,297.13 87.04,299.29 103.25,289.93 103.24,287.77 87.03,297.13" fill="#fff"/><polygon points="88.25,305.87 88.26,308.03 128.19,284.98 128.18,282.82 88.25,305.87" fill="#fff"/><polygon points="88.23,315.91 88.23,318.07 140.62,287.82 140.61,285.67 88.23,315.91" fill="#fff"/><polygon points="86.96,293.27 86.97,295.43 139.35,265.18 139.35,263.02 86.96,293.27" fill="#fff"/><polygon points="73.82,296.32 73.82,298.48 94.18,286.73 94.17,284.57 73.82,296.32" fill="#fff"/></g><polygon points="265.71,106.14 265.72,108.02 283.45,97.78 283.44,95.9 265.71,106.14" fill="#972dc2"/><polygon points="271.02,94.95 271.03,96.83 283.43,89.67 283.42,87.79 271.02,94.95" fill="#972dc2"/><polygon points="248.97,131.53 248.97,133.41 271.79,120.23 271.79,118.36 248.97,131.53" fill="#972dc2"/><polygon points="243.26,126.68 243.27,128.56 271.77,112.11 271.76,110.22 243.26,126.68" fill="#972dc2"/><polygon points="257.59,98.07 257.59,99.95 271.71,91.8 271.71,89.92 257.59,98.07" fill="#972dc2"/><polygon points="236.94,118.69 236.95,120.57 271.74,100.48 271.73,98.6 236.94,118.69" fill="#972dc2"/><polygon points="226.12,133.06 226.13,134.94 271.76,108.59 271.75,106.71 226.12,133.06" fill="#972dc2"/></g><g filter="url(#enJ8KX6URAg196-filter)"><polygon points="401.51,257.14 401.51,244.64 345.75,224.94 289.98,244.64 289.98,257.35 346.11,289.76 401.88,257.35 401.51,257.14" fill="#e0e0e0"/><polygon points="401.51,257.14 401.51,244.64 345.75,224.94 289.98,244.64 289.98,257.35 346.11,289.76 401.88,257.35 401.51,257.14" opacity="0.4"/><polygon points="408.43,227.69 345.73,191.49 283.43,227.69 346.13,263.9 408.43,227.69" fill="#e0e0e0"/><polygon points="408.43,227.69 345.73,191.49 283.43,227.69 346.13,263.9 408.43,227.69" opacity="0.1"/><polygon points="346.13,263.9 346.07,285.73 408.37,249.53 408.43,227.69 346.13,263.9" fill="#e0e0e0"/><polygon points="346.13,263.9 346.07,285.73 408.37,249.53 408.43,227.69 346.13,263.9" opacity="0.2"/><polygon points="283.43,227.69 283.36,249.53 346.07,285.73 346.13,263.9 283.43,227.69" fill="#e0e0e0"/><polygon points="287.69,236.09 287.67,246.31 317.02,263.26 317.05,253.03 287.69,236.09" fill="#f0f0f0"/><path d="M290.82,241.41l-.86-.5c-.42-.24-.76,0-.76.44v2.24c.027175.533851.305313,1.023372.75,1.32l.86.49c.42.24.76,0,.76-.43v-2.25c-.027125-.531185-.305654-1.017682-.75-1.31Z" fill="#e0e0e0"/><path d="M294.24,243.38l-.85-.49c-.43-.25-.77,0-.77.43v2.25c.025521.531655.304437,1.018827.75,1.31l.86.49c.42.24.76,0,.76-.43v-2.25c-.027125-.531185-.305654-1.017682-.75-1.31Z" fill="#e0e0e0"/><path d="M297.66,245.36l-.85-.5c-.43-.24-.77,0-.77.44v2.24c.027175.533851.305313,1.023372.75,1.32l.86.49c.42.24.76,0,.76-.44v-2.24c-.027125-.531185-.305654-1.017682-.75-1.31Z" fill="#e0e0e0"/><path d="M301.08,247.33l-.85-.49c-.43-.25-.76-.05-.77.43v2.25c.028705.53072.306855,1.016555.75,1.31l.86.49c.42.24.76.05.76-.43v-2.25c-.027125-.531185-.305654-1.017682-.75-1.31Z" fill="#e0e0e0"/><path d="M304.5,249.31l-.85-.5c-.43-.24-.76,0-.77.44v2.24c.025521.531655.304437,1.018827.75,1.31l.86.5c.42.24.76,0,.76-.44v-2.24c-.027125-.531185-.305654-1.017682-.75-1.31Z" fill="#e0e0e0"/><path d="M307.92,251.28l-.85-.49c-.43-.25-.76,0-.77.43v2.25c.027772.533523.310625,1.021072.76,1.31l.85.49c.42.24.76,0,.76-.43v-2.25c-.027125-.531185-.305654-1.017682-.75-1.31Z" fill="#e0e0e0"/><path d="M311.34,253.25l-.85-.49c-.43-.24-.76,0-.76.43v2.25c.026133.534008.30939,1.022254.76,1.31l.85.5c.42.24.76,0,.76-.44v-2.24c-.032564-.534761-.313873-1.023351-.76-1.32Z" fill="#e0e0e0"/><path d="M294.24,243.38l-.85-.49c-.43-.25-.77,0-.77.43v2.25c.025521.531655.304437,1.018827.75,1.31l.86.49c.42.24.76,0,.76-.43v-2.25c-.027125-.531185-.305654-1.017682-.75-1.31Z" opacity="0.3"/><path d="M301.08,247.33l-.85-.49c-.43-.25-.76-.05-.77.43v2.25c.028705.53072.306855,1.016555.75,1.31l.86.49c.42.24.76.05.76-.43v-2.25c-.027125-.531185-.305654-1.017682-.75-1.31Z" opacity="0.3"/><path d="M304.5,249.31l-.85-.5c-.43-.24-.76,0-.77.44v2.24c.025521.531655.304437,1.018827.75,1.31l.86.5c.42.24.76,0,.76-.44v-2.24c-.027125-.531185-.305654-1.017682-.75-1.31Z" opacity="0.3"/><path d="M311.34,253.25l-.85-.49c-.43-.24-.76,0-.76.43v2.25c.026133.534008.30939,1.022254.76,1.31l.85.5c.42.24.76,0,.76-.44v-2.24c-.032564-.534761-.313873-1.023351-.76-1.32Z" opacity="0.3"/><path d="M314.76,255.23l-.85-.49c-.43-.25-.76-.05-.76.43v2.25c.027772.533523.310625,1.021072.76,1.31l.85.49c.42.24.76,0,.76-.43v-2.25c-.029387-.533041-.311844-1.019909-.76-1.31Z" fill="#e0e0e0"/><path d="M339.6,271.49c-.08648-1.704402-.986885-3.263368-2.42-4.19-.491903-.353068-1.13198-.425029-1.69-.19v0l-1.95,1.1v0c.561407-.234822,1.204287-.162971,1.7.19c1.430531.927712,2.327394,2.48699,2.41,4.19.062688.602716-.200188,1.193235-.69,1.55l1.88-1.07.16-.07v0c.434275-.375372.658208-.938939.6-1.51Z" fill="#e0e0e0"/><path d="M339.6,271.49c-.08648-1.704402-.986885-3.263368-2.42-4.19-.491903-.353068-1.13198-.425029-1.69-.19v0l-1.95,1.1v0c.561407-.234822,1.204287-.162971,1.7.19c1.430531.927712,2.327394,2.48699,2.41,4.19.062688.602716-.200188,1.193235-.69,1.55l1.88-1.07.16-.07v0c.434275-.375372.658208-.938939.6-1.51Z" opacity="0.2"/><path d="M336.85,274.2v0Z" fill="#787878"/><path d="M337.61,272.61c-.082606-1.70301-.979469-3.262288-2.41-4.19-.495713-.352971-1.138593-.424822-1.7-.19-.524041.345707-.809925.956107-.74,1.58.08648,1.704402.986885,3.263368,2.42,4.19.485336.349152,1.115942.424674,1.67.2v0h.05c.510748-.359358.783344-.969821.71-1.59Z" fill="#e0e0e0"/><path d="M337.61,272.61c-.082606-1.70301-.979469-3.262288-2.41-4.19-.495713-.352971-1.138593-.424822-1.7-.19-.524041.345707-.809925.956107-.74,1.58.08648,1.704402.986885,3.263368,2.42,4.19.485336.349152,1.115942.424674,1.67.2v0h.05c.510748-.359358.783344-.969821.71-1.59Z" opacity="0.1"/><path d="M330.05,265.74c-.091314-1.70297-.990541-3.259896-2.42-4.19-.491903-.353068-1.13198-.425029-1.69-.19v0l-2,1.1v0c.555383-.244011,1.198472-.175517,1.69.18c1.434661.929829,2.335047,2.492482,2.42,4.2.056948.598976-.205087,1.183806-.69,1.54l1.88-1.06.15-.09v0c.451939-.35768.698785-.914953.66-1.49Z" fill="#e0e0e0"/><path d="M330.05,265.74c-.091314-1.70297-.990541-3.259896-2.42-4.19-.491903-.353068-1.13198-.425029-1.69-.19v0l-2,1.1v0c.555383-.244011,1.198472-.175517,1.69.18c1.434661.929829,2.335047,2.492482,2.42,4.2.056948.598976-.205087,1.183806-.69,1.54l1.88-1.06.15-.09v0c.451939-.35768.698785-.914953.66-1.49Z" opacity="0.2"/><path d="M327.3,268.45v0Z" fill="#787878"/><path d="M328.06,266.87c-.084953-1.707518-.985339-3.270171-2.42-4.2-.491528-.355517-1.134617-.424011-1.69-.18-.522639.343027-.811584.947885-.75,1.57.090349,1.705792.994296,3.26445,2.43,4.19.484619.35099,1.116205.426629,1.67.2v0h.06c.501869-.361343.769535-.965503.7-1.58Z" fill="#e0e0e0"/><path d="M328.06,266.87c-.084953-1.707518-.985339-3.270171-2.42-4.2-.491528-.355517-1.134617-.424011-1.69-.18-.522639.343027-.811584.947885-.75,1.57.090349,1.705792.994296,3.26445,2.43,4.19.484619.35099,1.116205.426629,1.67.2v0h.06c.501869-.361343.769535-.965503.7-1.58Z" opacity="0.1"/><polygon points="401.51,226.66 401.51,214.16 345.75,194.47 289.98,214.16 289.98,226.87 346.11,259.28 401.88,226.87 401.51,226.66" fill="#e0e0e0"/><polygon points="401.51,226.66 401.51,214.16 345.75,194.47 289.98,214.16 289.98,226.87 346.11,259.28 401.88,226.87 401.51,226.66" opacity="0.4"/><polygon points="408.43,197.21 345.73,161.01 283.43,197.21 346.13,233.42 408.43,197.21" fill="#e0e0e0"/><polygon points="408.43,197.21 345.73,161.01 283.43,197.21 346.13,233.42 408.43,197.21" opacity="0.1"/><polygon points="346.13,233.42 346.07,255.25 408.37,219.05 408.43,197.21 346.13,233.42" fill="#e0e0e0"/><polygon points="346.13,233.42 346.07,255.25 408.37,219.05 408.43,197.21 346.13,233.42" opacity="0.2"/><polygon points="283.43,197.21 283.36,219.05 346.07,255.25 346.13,233.42 283.43,197.21" fill="#e0e0e0"/><polygon points="287.69,205.61 287.67,215.83 317.02,232.78 317.05,222.56 287.69,205.61" fill="#f0f0f0"/><path d="M290.82,210.93l-.86-.5c-.42-.24-.76,0-.76.44v2.25c.028705.53072.306855,1.016555.75,1.31l.86.49c.42.24.76.05.76-.43v-2.25c-.027125-.531185-.305654-1.017682-.75-1.31Z" fill="#e0e0e0"/><path d="M294.24,212.9l-.85-.49c-.43-.25-.77,0-.77.43v2.25c.025521.531655.304437,1.018827.75,1.31l.86.5c.42.24.76,0,.76-.44v-2.25c-.027125-.531185-.305654-1.017682-.75-1.31Z" fill="#e0e0e0"/><path d="M297.66,214.88l-.85-.5c-.43-.24-.77,0-.77.44v2.25c.030262.530259.30804,1.015446.75,1.31l.86.49c.42.24.76,0,.76-.43v-2.25c-.027125-.531185-.305654-1.017682-.75-1.31Z" fill="#e0e0e0"/><path d="M301.08,216.85l-.85-.49c-.43-.25-.76-.05-.77.43v2.21c.025521.531655.304437,1.018827.75,1.31l.86.49c.42.25.76,0,.76-.43v-2.25c-.039386-.516778-.316475-.985981-.75-1.27Z" fill="#e0e0e0"/><path d="M304.5,218.83l-.85-.5c-.43-.24-.76,0-.77.44v2.23c.027175.533851.305313,1.023372.75,1.32l.86.49c.42.24.76,0,.76-.43v-2.25c-.030232-.527591-.308395-1.00974-.75-1.3Z" fill="#e0e0e0"/><path d="M307.92,220.8l-.85-.49c-.43-.25-.76-.05-.77.43v2.26c.026133.534008.30939,1.022254.76,1.31l.85.49c.42.25.76.05.76-.43v-2.25c-.02399-.534774-.302889-1.025635-.75-1.32Z" fill="#e0e0e0"/><path d="M311.34,222.78l-.85-.5c-.43-.24-.76,0-.76.44v2.28c.027861.536162.310301,1.026715.76,1.32l.85.49c.42.24.76,0,.76-.44v-2.24c-.016655-.547393-.300637-1.051835-.76-1.35Z" fill="#e0e0e0"/><path d="M294.24,212.9l-.85-.49c-.43-.25-.77,0-.77.43v2.25c.025521.531655.304437,1.018827.75,1.31l.86.5c.42.24.76,0,.76-.44v-2.25c-.027125-.531185-.305654-1.017682-.75-1.31Z" opacity="0.3"/><path d="M301.08,216.85l-.85-.49c-.43-.25-.76-.05-.77.43v2.21c.025521.531655.304437,1.018827.75,1.31l.86.49c.42.25.76,0,.76-.43v-2.25c-.039386-.516778-.316475-.985981-.75-1.27Z" opacity="0.3"/><path d="M304.5,218.83l-.85-.5c-.43-.24-.76,0-.77.44v2.23c.027175.533851.305313,1.023372.75,1.32l.86.49c.42.24.76,0,.76-.43v-2.25c-.030232-.527591-.308395-1.00974-.75-1.3Z" opacity="0.3"/><path d="M311.34,222.78l-.85-.5c-.43-.24-.76,0-.76.44v2.28c.027861.536162.310301,1.026715.76,1.32l.85.49c.42.24.76,0,.76-.44v-2.24c-.016655-.547393-.300637-1.051835-.76-1.35Z" opacity="0.3"/><path d="M314.76,224.75l-.85-.49c-.43-.25-.76,0-.76.43v2.25c.026133.534008.30939,1.022254.76,1.31l.85.49c.42.24.76,0,.76-.43v-2.25c-.029387-.533041-.311844-1.019909-.76-1.31Z" fill="#e0e0e0"/><path d="M339.6,241c-.08648-1.704402-.986885-3.263368-2.42-4.19-.491903-.353068-1.13198-.425029-1.69-.19v0l-1.95,1.1v0c.561407-.234822,1.204287-.162971,1.7.19c1.430531.927712,2.327394,2.48699,2.41,4.19.062688.602716-.200188,1.193235-.69,1.55l1.88-1.07.16-.08v0c.432635-.372245.656567-.932074.6-1.5Z" fill="#e0e0e0"/><path d="M339.6,241c-.08648-1.704402-.986885-3.263368-2.42-4.19-.491903-.353068-1.13198-.425029-1.69-.19v0l-1.95,1.1v0c.561407-.234822,1.204287-.162971,1.7.19c1.430531.927712,2.327394,2.48699,2.41,4.19.062688.602716-.200188,1.193235-.69,1.55l1.88-1.07.16-.08v0c.432635-.372245.656567-.932074.6-1.5Z" opacity="0.2"/><path d="M336.85,243.72v0Z" fill="#787878"/><path d="M337.61,242.13c-.082606-1.70301-.979469-3.262288-2.41-4.19-.495713-.352971-1.138593-.424822-1.7-.19-.522244.347258-.807583.956494-.74,1.58.08648,1.704402.986885,3.263368,2.42,4.19.485336.349152,1.115942.424674,1.67.2v0h.05c.510748-.359358.783344-.969821.71-1.59Z" fill="#e0e0e0"/><path d="M337.61,242.13c-.082606-1.70301-.979469-3.262288-2.41-4.19-.495713-.352971-1.138593-.424822-1.7-.19-.522244.347258-.807583.956494-.74,1.58.08648,1.704402.986885,3.263368,2.42,4.19.485336.349152,1.115942.424674,1.67.2v0h.05c.510748-.359358.783344-.969821.71-1.59Z" opacity="0.1"/><path d="M330.05,235.27c-.091384-1.705619-.990207-3.26556-2.42-4.2-.491903-.353068-1.13198-.425029-1.69-.19v0l-2,1.11v0c.555383-.244011,1.198472-.175517,1.69.18c1.433437.930991,2.333428,2.492959,2.42,4.2.056948.598976-.205087,1.183806-.69,1.54l1.88-1.06.15-.09v0c.453359-.356578.700555-.914641.66-1.49Z" fill="#e0e0e0"/><path d="M330.05,235.27c-.091384-1.705619-.990207-3.26556-2.42-4.2-.491903-.353068-1.13198-.425029-1.69-.19v0l-2,1.11v0c.555383-.244011,1.198472-.175517,1.69.18c1.433437.930991,2.333428,2.492959,2.42,4.2.056948.598976-.205087,1.183806-.69,1.54l1.88-1.06.15-.09v0c.453359-.356578.700555-.914641.66-1.49Z" opacity="0.2"/><path d="M327.3,238v0Z" fill="#787878"/><path d="M328.06,236.39c-.086572-1.707041-.986563-3.269009-2.42-4.2-.477861-.340515-1.096942-.412238-1.64-.19-.522639.343027-.811584.947885-.75,1.57.090349,1.705792.994296,3.26445,2.43,4.19.484619.35099,1.116205.426629,1.67.2v0h.06c.479754-.371035.727082-.968428.65-1.57Z" fill="#e0e0e0"/><path d="M328.06,236.39c-.086572-1.707041-.986563-3.269009-2.42-4.2-.477861-.340515-1.096942-.412238-1.64-.19-.522639.343027-.811584.947885-.75,1.57.090349,1.705792.994296,3.26445,2.43,4.19.484619.35099,1.116205.426629,1.67.2v0h.06c.479754-.371035.727082-.968428.65-1.57Z" opacity="0.1"/><polygon points="401.51,196.18 401.51,183.69 345.75,163.99 289.98,183.69 289.98,196.39 346.11,228.8 401.88,196.39 401.51,196.18" fill="#e0e0e0"/><polygon points="401.51,196.18 401.51,183.69 345.75,163.99 289.98,183.69 289.98,196.39 346.11,228.8 401.88,196.39 401.51,196.18" opacity="0.4"/><polygon points="408.43,166.73 345.73,130.53 283.43,166.73 346.13,202.94 408.43,166.73" fill="#e0e0e0"/><polygon points="408.43,166.73 345.73,130.53 283.43,166.73 346.13,202.94 408.43,166.73" opacity="0.1"/><polygon points="346.13,202.94 346.07,224.77 408.37,188.57 408.43,166.73 346.13,202.94" fill="#e0e0e0"/><polygon points="346.13,202.94 346.07,224.77 408.37,188.57 408.43,166.73 346.13,202.94" opacity="0.2"/><polygon points="283.43,166.73 283.36,188.57 346.07,224.77 346.13,202.94 283.43,166.73" fill="#e0e0e0"/><polygon points="287.69,175.13 287.67,185.35 317.02,202.3 317.05,192.08 287.69,175.13" fill="#f0f0f0"/><path d="M290.82,180.45L290,180c-.42-.25-.76-.05-.76.43v2.25c.027861.536162.310301,1.026715.76,1.32l.86.49c.42.24.76.05.76-.43v-2.25c-.022192-.558669-.322485-1.069168-.8-1.36Z" fill="#e0e0e0"/><path d="M294.24,182.42l-.85-.49c-.43-.25-.77-.05-.77.43v2.25c.025521.531655.304437,1.018827.75,1.31l.86.5c.42.24.76,0,.76-.44v-2.25c-.027125-.531185-.305654-1.017682-.75-1.31Z" fill="#e0e0e0"/><path d="M297.66,184.4l-.85-.5c-.43-.24-.77,0-.77.44v2.25c.028705.53072.306855,1.016555.75,1.31l.86.49c.42.24.76.05.76-.43v-2.25c-.027125-.531185-.305654-1.017682-.75-1.31Z" fill="#e0e0e0"/><path d="M301.08,186.37l-.85-.49c-.43-.25-.76,0-.77.43v2.25c.025521.531655.304437,1.018827.75,1.31l.86.5c.42.24.76,0,.76-.44v-2.25c-.027125-.531185-.305654-1.017682-.75-1.31Z" fill="#e0e0e0"/><path d="M304.5,188.35l-.85-.5c-.43-.24-.76,0-.77.44v2.25c.028705.53072.306855,1.016555.75,1.31l.86.49c.42.24.76,0,.76-.43v-2.25c-.027125-.531185-.305654-1.017682-.75-1.31Z" fill="#e0e0e0"/><path d="M307.92,190.32l-.85-.49c-.43-.25-.76-.05-.77.43v2.25c.026133.534008.30939,1.022254.76,1.31l.85.5c.42.24.76,0,.76-.44v-2.25c-.027125-.531185-.305654-1.017682-.75-1.31Z" fill="#e0e0e0"/><path d="M311.34,192.3l-.85-.5c-.43-.24-.76,0-.76.44v2.25c.027772.533523.310625,1.021072.76,1.31l.85.49c.42.24.76.05.76-.43v-2.25c-.029387-.533041-.311844-1.019909-.76-1.31Z" fill="#e0e0e0"/><path d="M294.24,182.42l-.85-.49c-.43-.25-.77-.05-.77.43v2.25c.025521.531655.304437,1.018827.75,1.31l.86.5c.42.24.76,0,.76-.44v-2.25c-.027125-.531185-.305654-1.017682-.75-1.31Z" opacity="0.3"/><path d="M301.08,186.37l-.85-.49c-.43-.25-.76,0-.77.43v2.25c.025521.531655.304437,1.018827.75,1.31l.86.5c.42.24.76,0,.76-.44v-2.25c-.027125-.531185-.305654-1.017682-.75-1.31Z" opacity="0.3"/><path d="M304.5,188.35l-.85-.5c-.43-.24-.76,0-.77.44v2.25c.028705.53072.306855,1.016555.75,1.31l.86.49c.42.24.76,0,.76-.43v-2.25c-.027125-.531185-.305654-1.017682-.75-1.31Z" opacity="0.3"/><path d="M311.34,192.3l-.85-.5c-.43-.24-.76,0-.76.44v2.25c.027772.533523.310625,1.021072.76,1.31l.85.49c.42.24.76.05.76-.43v-2.25c-.029387-.533041-.311844-1.019909-.76-1.31Z" opacity="0.3"/><path d="M314.76,194.27l-.85-.49c-.43-.25-.76-.05-.76.43v2.25c.026133.534008.30939,1.022254.76,1.31l.85.49c.42.25.76.05.76-.43v-2.25c-.029387-.533041-.311844-1.019909-.76-1.31Z" fill="#e0e0e0"/><path d="M339.6,210.54c-.086572-1.707041-.986563-3.269009-2.42-4.2-.491903-.353068-1.13198-.425029-1.69-.19v0l-1.95,1.11v0c.5588-.243724,1.204631-.175342,1.7.18c1.43085.932071,2.327299,2.494348,2.41,4.2.061084.59965-.20183,1.186444-.69,1.54l1.88-1.06.16-.09v0c.430997-.369116.654927-.92521.6-1.49Z" fill="#e0e0e0"/><path d="M339.6,210.54c-.086572-1.707041-.986563-3.269009-2.42-4.2-.491903-.353068-1.13198-.425029-1.69-.19v0l-1.95,1.11v0c.5588-.243724,1.204631-.175342,1.7.18c1.43085.932071,2.327299,2.494348,2.41,4.2.061084.59965-.20183,1.186444-.69,1.54l1.88-1.06.16-.09v0c.430997-.369116.654927-.92521.6-1.49Z" opacity="0.2"/><path d="M336.85,213.24v0Z" fill="#787878"/><path d="M337.61,211.66c-.082701-1.705652-.97915-3.267929-2.41-4.2-.495369-.355342-1.1412-.423724-1.7-.18-.524226.340841-.810745.948726-.74,1.57.08648,1.704402.986885,3.263368,2.42,4.19.485336.349152,1.115942.424674,1.67.2v0h.05c.509102-.35612.781753-.962863.71-1.58Z" fill="#e0e0e0"/><path d="M337.61,211.66c-.082701-1.705652-.97915-3.267929-2.41-4.2-.495369-.355342-1.1412-.423724-1.7-.18-.524226.340841-.810745.948726-.74,1.57.08648,1.704402.986885,3.263368,2.42,4.19.485336.349152,1.115942.424674,1.67.2v0h.05c.509102-.35612.781753-.962863.71-1.58Z" opacity="0.1"/><path d="M330.05,204.79c-.091384-1.705619-.990207-3.26556-2.42-4.2-.491528-.355517-1.134617-.424011-1.69-.18v0v0l-2,1.1v0c.555383-.244011,1.198472-.175517,1.69.18c1.433437.930991,2.333428,2.492959,2.42,4.2.056948.598976-.205087,1.183806-.69,1.54l1.88-1.06.15-.09v0c.453359-.356578.700555-.914641.66-1.49Z" fill="#e0e0e0"/><path d="M330.05,204.79c-.091384-1.705619-.990207-3.26556-2.42-4.2-.491528-.355517-1.134617-.424011-1.69-.18v0v0l-2,1.1v0c.555383-.244011,1.198472-.175517,1.69.18c1.433437.930991,2.333428,2.492959,2.42,4.2.056948.598976-.205087,1.183806-.69,1.54l1.88-1.06.15-.09v0c.453359-.356578.700555-.914641.66-1.49Z" opacity="0.2"/><path d="M327.3,207.49v0Z" fill="#787878"/><path d="M328.06,205.91c-.086572-1.707041-.986563-3.269009-2.42-4.2-.491528-.355517-1.134617-.424011-1.69-.18-.522639.343027-.811584.947885-.75,1.57.093646,1.707475.996397,3.267786,2.43,4.2.48851.342218,1.1171.413734,1.67.19v0h.06c.501869-.361343.769535-.965503.7-1.58Z" fill="#e0e0e0"/><path d="M328.06,205.91c-.086572-1.707041-.986563-3.269009-2.42-4.2-.491528-.355517-1.134617-.424011-1.69-.18-.522639.343027-.811584.947885-.75,1.57.093646,1.707475.996397,3.267786,2.43,4.2.48851.342218,1.1171.413734,1.67.19v0h.06c.501869-.361343.769535-.965503.7-1.58Z" opacity="0.1"/><polygon points="401.51,165.7 401.51,153.21 345.75,133.51 289.98,153.21 289.98,165.91 346.11,198.32 401.88,165.91 401.51,165.7" fill="#e0e0e0"/><polygon points="401.51,165.7 401.51,153.21 345.75,133.51 289.98,153.21 289.98,165.91 346.11,198.32 401.88,165.91 401.51,165.7" opacity="0.4"/><polygon points="408.43,136.25 345.73,100.05 283.43,136.25 346.13,172.46 408.43,136.25" fill="#e0e0e0"/><polygon points="408.43,136.25 345.73,100.05 283.43,136.25 346.13,172.46 408.43,136.25" opacity="0.1"/><polygon points="346.13,172.46 346.07,194.29 408.37,158.09 408.43,136.25 346.13,172.46" fill="#e0e0e0"/><polygon points="346.13,172.46 346.07,194.29 408.37,158.09 408.43,136.25 346.13,172.46" opacity="0.2"/><polygon points="283.43,136.25 283.36,158.09 346.07,194.29 346.13,172.46 283.43,136.25" fill="#e0e0e0"/><polygon points="287.69,144.65 287.67,154.87 317.02,171.82 317.05,161.6 287.69,144.65" fill="#f0f0f0"/><path d="M290.82,150l-.86-.49c-.42-.25-.76,0-.76.43v2.25c.028705.53072.306855,1.016555.75,1.31l.86.49c.42.24.76,0,.76-.43v-2.25c-.027125-.531185-.305654-1.017682-.75-1.31Z" fill="#e0e0e0"/><path d="M294.24,151.94l-.85-.49c-.43-.24-.77,0-.77.44v2.24c.025521.531655.304437,1.018827.75,1.31l.86.5c.42.24.76,0,.76-.44v-2.24c-.030267-.532944-.307674-1.02118-.75-1.32Z" fill="#e0e0e0"/><path d="M297.66,153.92l-.85-.49c-.43-.25-.77-.05-.77.43v2.25c.028705.53072.306855,1.016555.75,1.31l.86.49c.42.24.76.05.76-.43v-2.25c-.027125-.531185-.305654-1.017682-.75-1.31Z" fill="#e0e0e0"/><path d="M301.08,155.89l-.85-.49c-.43-.24-.76,0-.77.43v2.25c.025521.531655.304437,1.018827.75,1.31l.86.5c.42.24.76,0,.76-.44v-2.24c-.030267-.532944-.307674-1.02118-.75-1.32Z" fill="#e0e0e0"/><path d="M304.5,157.87l-.85-.49c-.43-.25-.76,0-.77.43v2.25c.028705.53072.306855,1.016555.75,1.31l.86.49c.42.24.76,0,.76-.43v-2.25c-.027125-.531185-.305654-1.017682-.75-1.31Z" fill="#e0e0e0"/><path d="M307.92,159.84l-.85-.49c-.43-.24-.76,0-.77.43v2.22c.026133.534008.30939,1.022254.76,1.31l.85.5c.42.24.76,0,.76-.44v-2.25c-.039357-.519456-.316081-.991732-.75-1.28Z" fill="#e0e0e0"/><path d="M311.34,161.82l-.85-.5c-.43-.24-.76,0-.76.44v2.24c.027772.533523.310625,1.021072.76,1.31l.85.49c.42.24.76.05.76-.43v-2.25c-.032499-.52944-.314586-1.011956-.76-1.3Z" fill="#e0e0e0"/><path d="M294.24,151.94l-.85-.49c-.43-.24-.77,0-.77.44v2.24c.025521.531655.304437,1.018827.75,1.31l.86.5c.42.24.76,0,.76-.44v-2.24c-.030267-.532944-.307674-1.02118-.75-1.32Z" opacity="0.3"/><path d="M301.08,155.89l-.85-.49c-.43-.24-.76,0-.77.43v2.25c.025521.531655.304437,1.018827.75,1.31l.86.5c.42.24.76,0,.76-.44v-2.24c-.030267-.532944-.307674-1.02118-.75-1.32Z" opacity="0.3"/><path d="M304.5,157.87l-.85-.49c-.43-.25-.76,0-.77.43v2.25c.028705.53072.306855,1.016555.75,1.31l.86.49c.42.24.76,0,.76-.43v-2.25c-.027125-.531185-.305654-1.017682-.75-1.31Z" opacity="0.3"/><path d="M311.34,161.82l-.85-.5c-.43-.24-.76,0-.76.44v2.24c.027772.533523.310625,1.021072.76,1.31l.85.49c.42.24.76.05.76-.43v-2.25c-.032499-.52944-.314586-1.011956-.76-1.3Z" opacity="0.3"/><path d="M314.76,163.79l-.85-.49c-.43-.25-.76-.05-.76.43v2.27c.026133.534008.30939,1.022254.76,1.31l.85.5c.42.24.76,0,.76-.44v-2.27c-.029387-.533041-.311844-1.019909-.76-1.31Z" fill="#e0e0e0"/><path d="M339.6,180.06c-.086572-1.707041-.986563-3.269009-2.42-4.2-.491903-.353068-1.13198-.425029-1.69-.19v0v0l-1.95,1.1v0c.5588-.243724,1.204631-.175342,1.7.18c1.43085.932071,2.327299,2.494348,2.41,4.2.061084.59965-.20183,1.186444-.69,1.54l1.88-1.06.16-.09v0c.427953-.367001.651573-.918597.6-1.48Z" fill="#e0e0e0"/><path d="M339.6,180.06c-.086572-1.707041-.986563-3.269009-2.42-4.2-.491903-.353068-1.13198-.425029-1.69-.19v0v0l-1.95,1.1v0c.5588-.243724,1.204631-.175342,1.7.18c1.43085.932071,2.327299,2.494348,2.41,4.2.061084.59965-.20183,1.186444-.69,1.54l1.88-1.06.16-.09v0c.427953-.367001.651573-.918597.6-1.48Z" opacity="0.2"/><path d="M336.85,182.76v0Z" fill="#787878"/><path d="M337.61,181.18c-.082701-1.705652-.97915-3.267929-2.41-4.2-.495369-.355342-1.1412-.423724-1.7-.18-.524226.340841-.810745.948726-.74,1.57.089787,1.706092.988997,3.266704,2.42,4.2.48851.342218,1.1171.413734,1.67.19v0h.05c.509102-.35612.781753-.962863.71-1.58Z" fill="#e0e0e0"/><path d="M337.61,181.18c-.082701-1.705652-.97915-3.267929-2.41-4.2-.495369-.355342-1.1412-.423724-1.7-.18-.524226.340841-.810745.948726-.74,1.57.089787,1.706092.988997,3.266704,2.42,4.2.48851.342218,1.1171.413734,1.67.19v0h.05c.509102-.35612.781753-.962863.71-1.58Z" opacity="0.1"/><path d="M330.05,174.31c-.092973-1.705148-.991412-3.264422-2.42-4.2-.493722-.349752-1.133686-.417914-1.69-.18v0v0l-2,1.1v0c.556484-.245369,1.201891-.172809,1.69.19c1.433115.926632,2.33352,2.485598,2.42,4.19.059.599312-.203469,1.185114-.69,1.54l1.88-1.06.15-.09v0c.454798-.355458.702352-.914328.66-1.49Z" fill="#e0e0e0"/><path d="M330.05,174.31c-.092973-1.705148-.991412-3.264422-2.42-4.2-.493722-.349752-1.133686-.417914-1.69-.18v0v0l-2,1.1v0c.556484-.245369,1.201891-.172809,1.69.19c1.433115.926632,2.33352,2.485598,2.42,4.19.059.599312-.203469,1.185114-.69,1.54l1.88-1.06.15-.09v0c.454798-.355458.702352-.914328.66-1.49Z" opacity="0.2"/><path d="M327.3,177v0Z" fill="#787878"/><path d="M328.06,175.43c-.08648-1.704402-.986885-3.263368-2.42-4.19-.472964-.422532-1.162572-.496749-1.714611-.18453s-.843787.941465-.725389,1.56453c.093646,1.707475.996397,3.267786,2.43,4.2.486433.34766,1.117902.419504,1.67.19v0h.06c.503585-.359948.771721-.96517.7-1.58Z" fill="#e0e0e0"/><path d="M328.06,175.43c-.08648-1.704402-.986885-3.263368-2.42-4.19-.472964-.422532-1.162572-.496749-1.714611-.18453s-.843787.941465-.725389,1.56453c.093646,1.707475.996397,3.267786,2.43,4.2.486433.34766,1.117902.419504,1.67.19v0h.06c.503585-.359948.771721-.96517.7-1.58Z" opacity="0.1"/></g><g filter="url(#enJ8KX6URAg317-filter)"><path d="M369.83,276.54h7.17c0,0,8.32,54.63,8.89,65.1-.032263.32883-.238382.615106-.54.75-.807662.409784-1.762338.409784-2.57,0-.26143-.123737-.447461-.365578-.5-.65v0c-1.04-6.25-12.45-65.2-12.45-65.2Z" fill="#37474f"/><path d="M377,276.54c0,0,.36,2.35.92,6.13-1.14,2.46-3.62,5.14-5.89,5.19-.89-4.59-2.19-11.32-2.19-11.32Z" opacity="0.3"/><path d="M377.86,322.35h-7.16c0,0-8.32,54.63-8.9,65.11.029487.327478.237126.61202.54.74.808765.419819,1.771235.419819,2.58,0c.258353-.127521.443015-.367581.5-.65v0c1.03-6.25,12.44-65.2,12.44-65.2Z" fill="#37474f"/><path d="M370.7,322.35c0,0-.36,2.35-.93,6.14c2.108828.855623,4.354915,1.323134,6.63,1.38.89-4.6,1.46-7.52,1.46-7.52Z" opacity="0.3"/><path d="M409.1,298.69h7.16c0,0,8.32,54.63,8.89,65.1-.0323.325876-.233609.610748-.53.75-.811149.409936-1.768851.409936-2.58,0-.251928-.135222-.433923-.371816-.5-.65v0c-1.03-6.25-12.44-65.2-12.44-65.2Z" fill="#37474f"/><path d="M416.26,298.69c0,0,.36,2.35.93,6.13-1.14,2.46-3.63,5.14-5.9,5.19-.89-4.59-2.19-11.32-2.19-11.32Z" opacity="0.3"/><path d="M335.48,297.94h-7.16c0,0-8.32,54.63-8.89,65.06.032263.32883.238382.615106.54.75.807662.409784,1.762338.409784,2.57,0c.265088-.124356.45205-.371145.5-.66v0c1.03-6.2,12.44-65.15,12.44-65.15Z" fill="#37474f"/><path d="M328.32,297.94c0,0-.36,2.35-.92,6.13c1.22,1.45,3.9,3.68,6.18,3.73.88-4.59,1.9-9.86,1.9-9.86Z" opacity="0.3"/><polygon points="413.76,250.16 410.62,289.99 414.44,292.86 417.88,251.84 413.76,250.16" fill="#37474f"/><polygon points="373.38,227.38 370.24,267.2 374.07,270.08 377.5,229.05 373.38,227.38" fill="#37474f"/><path d="M363.73,262c0,0-23.93,6.74-42.37,24.47v7.26c3.4,4.08,29.29,24.25,56.5,32.62C396,318,414,304,417.13,300.12v-7.26c-6.84-13.37-53.4-30.86-53.4-30.86Z" fill="#972dc2"/><path d="M321.36,286.5v7.26c3.4,4.08,29.29,24.25,56.5,32.62v-7.26c-27.21-8.37-53.1-28.54-56.5-32.62Z" opacity="0.2" fill="#fff"/><path d="M377.86,319.12v7.26C396,318,414,304,417.13,300.12v-7.26c-3.13,3.83-21.13,17.89-39.27,26.26Z" opacity="0.2"/><path d="M426.71,242c-.002333-.573292-.165146-1.134477-.47-1.62-15.95-25-49-32.72-56.34-30.83L366.48,213v17.93c25.5,3.24,47.37,19.87,56.2,32.69l1.18-.46c1.722694-.68319,2.855523-2.346786,2.86-4.2v-16.96Z" fill="#972dc2"/><path d="M426.71,242c.009824,1.338925-.822668,2.539636-2.08,3l-1.95.7v17.92l1.18-.46c1.722694-.68319,2.855523-2.346786,2.86-4.2v-16.96Z" opacity="0.1"/><path d="M422.68,245.7l1.95-.7c1.257332-.460364,2.089824-1.661075,2.08-3-.002333-.573292-.165146-1.134477-.47-1.62-15.95-25-49-32.72-56.34-30.83L366.48,213c7.35-1.35,43.69,5.91,56.2,32.7Z" opacity="0.3" fill="#fff"/><path d="M366.48,213v17.93c25.5,3.24,47.37,19.87,56.2,32.69v-17.92c-12.51-26.79-48.85-34.05-56.2-32.7Z" opacity="0.3"/><path d="M318.74,405.48l1,5.94c4.71-2.24,6.23-4.77,6.23-4.77.12-4.56.06-9.25,0-11.53-1.25,2.77-4,4.64-5.7,7.2-.636631.987182-1.150428,2.048357-1.53,3.16Z" fill="#972dc2"/><path d="M317.22,410.78l2.51.64-1-5.94c-.61,1.71-1.02,3.52-1.51,5.3Z" fill="#972dc2"/><path d="M318.74,405.48l1,5.94c4.71-2.24,6.23-4.77,6.23-4.77.12-4.56.06-9.25,0-11.53-1.25,2.77-4,4.64-5.7,7.2-.636631.987182-1.150428,2.048357-1.53,3.16Z" opacity="0.2"/><path d="M317.22,410.78l2.51.64-1-5.94c-.61,1.71-1.02,3.52-1.51,5.3Z" opacity="0.3"/><path d="M326.21,388.54c-.495784-1.571817-1.149102-3.089523-1.95-4.53-.07024,2.439425-.825716,4.809818-2.18,6.84-1.7,2.73-4,5.09-5.59,7.86-2,3.38-3,7.36-5.61,10.28-2.603741,2.874294-6.408099,4.356031-10.27,4-1.427004-.046111-2.778179-.653421-3.76-1.69-.398497-.51192-.616484-1.141271-.62-1.79-1.280084,1.377382-2.697431,2.620492-4.23,3.71-1.72,1.19-3.77,2.45-4.05,4.52-.095549,1.768973.871976,3.424778,2.46,4.21c1.562125.742008,3.270611,1.124709,5,1.12c3.693423.332692,7.416576.014532,11-.94c3.620177-.979089,6.755076-3.25287,8.81-6.39.892055-1.567425,1.564988-3.249758,2-5c.49-1.78.9-3.59,1.52-5.3.382727-1.112119.899892-2.173314,1.54-3.16c1.71-2.56,4.45-4.43,5.7-7.2.07-.15.15-.29.21-.44.652664-1.979879.659668-4.115884.02-6.1Z" fill="#972dc2"/><path d="M300.61,413c3.861901.356031,7.666259-1.125706,10.27-4c2.6-2.92,3.63-6.9,5.61-10.28c1.63-2.77,3.89-5.13,5.59-7.86c1.354284-2.030182,2.10976-4.400575,2.18-6.84.46-1.77,1.36-3.87,1.16-4.25-4.88-.43-8.13-1.65-13.6-2.42-2.797989,8.001003-6.008966,15.851543-9.62,23.52-1.585268,3.149957-3.604986,6.061716-6,8.65.003516.648729.221503,1.27808.62,1.79.989119,1.043801,2.352497,1.651746,3.79,1.69Z" fill="#ffdbb4"/><path d="M332.71,352.28c-.6,9.45-3,16.29-4.86,29.18c0,0-11.31,3.37-18.36-1.55l-.29-19.85Z" fill="#37474f"/><path d="M283.46,391.85l1,5.93c4.71-2.24,6.23-4.77,6.23-4.77.12-4.56.07-9.25,0-11.53-1.25,2.77-4,4.65-5.7,7.2-.638331.989777-1.152207,2.054474-1.53,3.17Z" fill="#972dc2"/><path d="M282,397.14l2.5.64-1-5.93c-.65,1.7-1.06,3.52-1.5,5.29Z" fill="#972dc2"/><path d="M283.46,391.85l1,5.93c4.71-2.24,6.23-4.77,6.23-4.77.12-4.56.07-9.25,0-11.53-1.25,2.77-4,4.65-5.7,7.2-.638331.989777-1.152207,2.054474-1.53,3.17Z" opacity="0.2"/><path d="M282,397.14l2.5.64-1-5.93c-.65,1.7-1.06,3.52-1.5,5.29Z" opacity="0.3"/><path d="M290.93,374.9c-.487973-1.573135-1.138133-3.091292-1.94-4.53-.073211,2.440414-.832178,4.810887-2.19,6.84-1.69,2.74-4,5.09-5.58,7.87-2,3.37-3,7.35-5.62,10.28-2.598796,2.875329-6.400806,4.357594-10.26,4-1.427754-.042863-2.780111-.650704-3.76-1.69-.398148-.512783-.619211-1.140884-.63-1.79-1.275505,1.382087-2.693363,2.625646-4.23,3.71-1.71,1.2-3.77,2.46-4.05,4.53-.090234,1.767682.87571,3.420781,2.46,4.21c1.562236.741686,3.270648,1.12437,5,1.12c3.694014.323057,7.416071.001607,11-.95c3.617309-.979577,6.748888-3.253531,8.8-6.39.891714-1.567589,1.564628-3.249874,2-5c.49-1.77.9-3.59,1.51-5.29.384099-1.116487.904711-2.181224,1.55-3.17c1.7-2.55,4.45-4.43,5.7-7.2.074901-.142782.141674-.289683.2-.44.666233-1.98001.680252-4.121437.04-6.11Z" fill="#972dc2"/><path d="M265.34,399.35c3.859194.357594,7.661204-1.124671,10.26-4c2.61-2.93,3.63-6.91,5.62-10.28c1.62-2.78,3.89-5.13,5.58-7.87c1.357822-2.029113,2.116789-4.399586,2.19-6.84.45-1.77,1.36-3.87,1.15-4.25-4.88-.43-8.13-1.65-13.59-2.42-2.801376,8.001155-6.01569,15.851692-9.63,23.52-1.582864,3.151386-3.602805,6.063468-6,8.65.010789.649116.231852,1.277217.63,1.79.985478,1.050253,2.350282,1.662435,3.79,1.7Z" fill="#ffdbb4"/><path d="M301,341.21c-2.18,9.21-5.72,15.55-9.72,27.94c0,0-11.73,1.41-17.84-4.64l5.26-32.35Z" fill="#37474f"/><path d="M372.79,315.67c6.76-2.91,37.39-18.16,17.12-47.76l-50.25-7.21c-1.65,15.77-16.14,26.1-16.14,26.1Z" fill="#37474f"/><path d="M362.72,277.07c9.71795-.574351,19.105532-3.73692,27.19-9.16-2.22647-3.957222-4.828454-7.691086-7.77-11.15l-44.86,4q-.66,5.58-1,11c8.2307,3.952928,17.321313,5.778615,26.44,5.31Z" fill="#ffdbb4"/><path d="M334.419045,186.929157c-.185688-.696509-.157353-1.409399.083425-2.099011.213198-.591271,2.845731-4.138895,2.493491-4.363578-4.600218-2.975226-5.296782-7.601044-1.668507-11.080413-1.99745-.454327-3.2567-1.715455-3.057605-3.06217s1.805741-2.435456,3.901128-2.643593c1.677776-.183293,3.355552.224683,5.033329.455279c2.862551.33115,5.795146.33115,8.657697,0c2.864271-.266072,5.719271-.662223,8.61135-.798216c2.899448-.200316,5.831371.065982,8.527924.774565c2.720087.72832,4.757144,2.21987,5.515342,4.038379c4.291771-.538056,9.269483,1.696947,10.066659,4.440443s-1.687046,5.321436-1.306997,8.023543c.416476,1.829496,1.711863,3.531645,3.707793,4.872071c1.853896,1.389486,4.087842,2.572028,6.034433,3.914212c5.369487,3.716093,8.573407,8.496505,9.074824,13.540099.259546,2.814449-.407857,5.76489-2.87354,8.106322-4.838669,4.600086-17.825215,5.753064-25.80624,5.557944-8.186031-.206534-16.10432-1.916833-22.802928-4.925285-4.634742-2.069447-8.815278-5.149968-8.648428-8.738981.074156-1.691034,1.112339-3.287465,1.853897-4.919372s1.047452-3.447108-.18539-4.943023-3.985877-2.42421-5.635845-3.837347c-.812458-.677316-1.353391-1.470915-1.575812-2.311868Z" transform="translate(-5.565399-5.260153)" fill="#8c5f3c"/><path d="M346.86,221.42c1.405403.965508,3.100456,1.417522,4.8,1.28c8.405207.004869,16.328073-3.92511,21.41-10.62l-4.76-.42v-15.3l-16.53,6.38v8.84h-4.24c-.861702,1.077098-1.537649,2.290423-2,3.59-.74,2.15-.42,4.83,1.32,6.25Z" fill="#ffdbb4"/><path d="M367.15,196.8c-2.68,6.06-8,11.26-15.37,12.12v-6.18Z" fill="#f28f8f"/><path d="M365.37,184.58c-.224607,1.277066-.285097,2.577599-.18,3.87.134674.979246.583896,1.888217,1.28,2.59.685292.679016,1.665881.968309,2.61.77-.625914-2.694296,1.032121-5.390751,3.718927-6.048074s5.402432.969124,6.091073,3.648074c.444022,1.823773.055736,3.750551-1.06,5.26-1.110866,1.488313-2.556534,2.694179-4.22,3.52-1.959766.646819-4.102355-.193412-5.1-2-4.91,6.23-13.48,10.9-21.51,10.23-2.200816-.115336-4.321923-.861716-6.11-2.15-3-2.35-3.26-5.9-3.64-9.4-.56685-4.434268-.533214-8.924722.1-13.35c1-6.1,3.7-12.1,8.44-16.07c2.75,13.27,14.92,18.15,19.58,19.13Z" fill="#ffdbb4"/><polygon points="348.65,183.07 343.15,189.84 348.26,191.6 348.65,183.07" fill="#f28f8f"/><path d="M353,194.9l-4.28,1.36c.56772,1.033056,1.749565,1.566924,2.9,1.31c1.032073-.453217,1.607184-1.565931,1.38-2.67Z" fill="#f28f8f"/><path d="M353,194.9l-4.28,1.36c.56772,1.033056,1.749565,1.566924,2.9,1.31c1.032073-.453217,1.607184-1.565931,1.38-2.67Z" opacity="0.3"/><path d="M350.17,197.49c.451838.165075.94239.192908,1.41.08.806901-.31767,1.348789-1.08338,1.38-1.95-.572442-.085807-1.157109.023377-1.66.31-.567632.350657-.973769.911342-1.13,1.56Z" fill="#f28f8f"/><path d="M356.22,184.48c-.039483.843655-.755105,1.495745-1.598787,1.45685s-1.496272-.75406-1.457966-1.59777.753017-1.496797,1.596753-1.45908c.406871.015492.790517.193575,1.064967.494343s.416758.699071.395033,1.105657Z" fill="#4a312c"/><path d="M343.44,183.41c-.039483.843655-.755105,1.495745-1.598787,1.45685s-1.496272-.75406-1.457966-1.59777.753017-1.496797,1.596753-1.45908c.406871.015492.790517.193575,1.064967.494343s.416758.699071.395033,1.105657Z" fill="#4a312c"/><path d="M342.23,177.27l-3.49,2.19c-.25862-.873225.047529-1.815526.77-2.37.866943-.462973,1.921626-.393178,2.72.18Z" fill="#4a312c"/><path d="M355.29,177.68l3.28,2.49c.337177-.845771.118516-1.811855-.55-2.43-.823966-.5394-1.883131-.562678-2.73-.06Z" fill="#4a312c"/><path d="M391.79,268.62c-8.54-12.84-9.05-21.83-4.79-29.41c1.3-2.3,1.08-11.58.71-18.37-.223983-4.319383-3.600564-7.81122-7.91-8.18l-6.73-.58c-5.081927,6.69489-13.004793,10.624869-21.41,10.62-2.5,0-5.26-.45-6.26-3.51-.273625-.848397-.345531-1.748933-.21-2.63.327593-1.845092,1.138469-3.570359,2.35-5h-4.11c-4.94,4.39-14.28,22.16-14.86,31.72-.29,4.8,3.41,7.16,6,8.65c0,0,1.74,7.08-.85,20.22c12.58,8.92,41.95,9.85,58.07-3.53Z" fill="#972dc2"/><path d="M370.86,243.22c-4.76715,6.848603-13.655558,9.460639-21.37,6.28c3.222898,3.135959,7.81971,4.417038,12.2,3.4c4.31-1.09,7.9-5.47,9.17-9.68Z" opacity="0.2"/><path d="M368.31,210.19v1.47l-8.13,34c0,0,.82,17.98,11.69,38.34c12.32,2.32,22.26-4.42,24.87-7.77-7.46-10.16-12.4-30-12.4-30l-1.27-33.43-13.77-.95Z" fill="#455a64"/><path d="M368.31,211.66v-1.47l3.89,6.94c.451629.807316.339037,1.812598-.28,2.5l-4.38,4.9l2.25,2.14c.740263.703226.890151,1.827386.36,2.7l-10,16.32Z" fill="#455a64"/><path d="M368.31,211.66v-1.47l3.89,6.94c.451629.807316.339037,1.812598-.28,2.5l-4.38,4.9l2.25,2.14c.740263.703226.890151,1.827386.36,2.7l-10,16.32Z" opacity="0.3" fill="#fff"/><path d="M374.18,219.31l-9.38,40.86-1.95.7.85-5.53c1.905307-12.406374,5.428654-24.509473,10.48-36Z" opacity="0.2"/><path d="M384.39,266.8l1.88-13.89c-1.25-4-1.93-6.75-1.93-6.75l-.3-7.72-16.93,35.29c.62,1.54,1.29,3.11,2,4.72L375,277.1c4.965474-1.149827,8.703068-5.249638,9.39-10.3Z" opacity="0.2"/><path d="M335.72,274.24c-.06-11.46,0-24.76,1.13-32.14c3.69-16.63,8.51-22.85,12.61-30.52h2.32v-2.66l-3.68,2.66h-4.67c-16.94,19.95-16.86,30.93-17,34.11s.51,23.49.51,23.49Z" fill="#455a64"/><path d="M342,216c-.611412.445359-.948261,1.175828-.89,1.93l.31,4-3.85,1.5c-.879403.344962-1.436573,1.217054-1.38,2.16l1,15.12c3.64-15.56,8.3-21.66,12.28-29.11h2.32v-2.66Z" fill="#455a64"/><g opacity="0.3"><path d="M342,216c-.611412.445359-.948261,1.175828-.89,1.93l.31,4-3.85,1.5c-.879403.344962-1.436573,1.217054-1.38,2.16l1,15.12c3.64-15.56,8.3-21.66,12.28-29.11h2.32v-2.66Z" fill="#fff"/></g><polygon points="177.33,285.38 177.33,382.99 180.78,381 180.78,283.38 177.33,285.38" fill="#455a64"/><polygon points="177.33,285.38 177.33,382.99 173.88,381 173.88,283.38 177.33,285.38" fill="#37474f"/><polygon points="180.78,311.41 261.57,264.77 261.57,261.06 180.78,307.7 180.78,311.41" fill="#455a64"/><polygon points="180.78,303.78 258.12,259.07 261.57,261.06 180.78,307.7 180.78,303.78" fill="#37474f"/><polygon points="402.65,318.26 402.65,415.87 406.1,413.88 406.1,316.26 402.65,318.26" fill="#455a64"/><polygon points="402.65,318.26 402.65,415.87 399.2,413.88 399.2,316.26 402.65,318.26" fill="#37474f"/><polygon points="318.41,366.91 318.41,464.52 321.86,462.53 321.86,364.91 318.41,366.91" fill="#455a64"/><polygon points="318.41,366.91 318.41,464.52 314.96,462.53 314.96,364.91 318.41,366.91" fill="#37474f"/><polygon points="321.86,392.94 402.65,346.3 402.65,342.59 321.86,389.23 321.86,392.94" fill="#455a64"/><polygon points="321.86,385.31 399.2,340.6 402.65,342.59 321.86,389.23 321.86,385.31" fill="#37474f"/><g opacity="0.2"><polygon points="402.65,318.26 402.65,415.87 406.1,413.88 406.1,316.26 402.65,318.26" fill="#fff"/><polygon points="402.65,318.26 402.65,415.87 399.2,413.88 399.2,316.26 402.65,318.26" fill="#fff"/><polygon points="318.41,366.91 318.41,464.52 321.86,462.53 321.86,364.91 318.41,366.91" fill="#fff"/><polygon points="318.41,366.91 318.41,464.52 314.96,462.53 314.96,364.91 318.41,366.91" fill="#fff"/><polygon points="321.86,392.94 402.65,346.3 402.65,342.59 321.86,389.23 321.86,392.94" fill="#fff"/><polygon points="321.86,385.31 399.2,340.6 402.65,342.59 321.86,389.23 321.86,385.31" fill="#fff"/></g><g opacity="0.2"><polygon points="177.33,285.38 177.33,382.99 180.78,381 180.78,283.38 177.33,285.38" fill="#fff"/><polygon points="177.33,285.38 177.33,382.99 173.88,381 173.88,283.38 177.33,285.38" fill="#fff"/><polygon points="180.78,311.41 261.57,264.77 261.57,261.06 180.78,307.7 180.78,311.41" fill="#fff"/><polygon points="180.78,303.78 258.12,259.07 261.57,261.06 180.78,307.7 180.78,303.78" fill="#fff"/></g><polygon points="318.41,357.49 173.87,274.24 261.56,223.59 406.1,306.84 318.41,357.49" fill="#972dc2"/><polygon points="318.41,366.91 173.87,283.38 173.87,274.24 318.41,357.49 318.41,366.91" fill="#972dc2"/><polygon points="318.41,357.48 406.1,306.83 406.1,316.26 318.41,366.91 318.41,357.48" fill="#972dc2"/><polygon points="318.41,357.49 173.87,274.24 261.56,223.59 406.1,306.84 318.41,357.49" opacity="0.4" fill="#fff"/><polygon points="318.41,357.48 406.1,306.83 406.1,316.26 318.41,366.91 318.41,357.48" opacity="0.3" fill="#fff"/><polygon points="318.41,366.91 173.87,283.38 173.87,274.24 318.41,357.49 318.41,366.91" opacity="0.2" fill="#fff"/><path d="M325.7,332c-4.74128-2.410195-10.34872-2.410195-15.09,0-4.15,2.42-4.13,6.33.05,8.74c4.738931,2.41998,10.351069,2.41998,15.09,0c4.15-2.41,4.13-6.32-.05-8.74Z" opacity="0.05"/><path d="M329.32,316.82l-11.46.33-11.47-.33c-.49,7.74,1,15.63,3.1,19.49v0c.492049.991601,1.287144,1.800707,2.27,2.31c3.836296,1.950565,8.373704,1.950565,12.21,0c.999414-.515254,1.798283-1.349315,2.27-2.37c2.08-3.88,3.58-11.73,3.08-19.43Z" fill="#fff"/><path d="M325.94,312.12c4.49,2.6,4.52,6.8.05,9.4s-11.72,2.59-16.22,0-4.51-6.8,0-9.4s11.68-2.59,16.17,0Z" fill="#ebebeb"/><path d="M324.16,313.15c3.51,2,3.53,5.31,0,7.33-3.972369,2.029899-8.677631,2.029899-12.65,0-3.5-2-3.52-5.3,0-7.33c3.976267-2.013639,8.673733-2.013639,12.65,0Z" fill="#e0e0e0"/><g opacity="0.15"><path d="M324.16,313.15c3.51,2,3.53,5.31,0,7.33-3.972369,2.029899-8.677631,2.029899-12.65,0-3.5-2-3.52-5.3,0-7.33c3.976267-2.013639,8.673733-2.013639,12.65,0Z"/></g><path d="M316.9,317.14c1.863787,1.568578,4.371248,2.138625,6.73,1.53c2.271441-.692207,4.041817-2.481376,4.71-4.76-1.358997-.645333-2.602329-1.51026-3.68-2.56c1.72007-.426988,3.5256-.361143,5.21.19.961981-1.495227,1.108502-3.373695.39-5-1.95467-.870574-4.153997-1.022862-6.21-.43c1.725172-1.509116,3.999844-2.233534,6.28-2c.162034-3.28609-.351897-6.570481-1.51-9.65-4.27.22-8.42,2.06-9.81,3.39-.067347,1.528209.091023,3.057996.47,4.54-1.126019-.572986-1.880609-1.682233-2-2.94-2.67.67-3.82,2-4.24,3c.391897,1.899812,1.266683,3.666603,2.54,5.13-1.626773-.634665-2.909125-1.927915-3.53-3.56-2.46,5.92-1.99,12.55,4.65,13.12Z" fill="#972dc2"/><path d="M316.9,317.14c1.863787,1.568578,4.371248,2.138625,6.73,1.53c2.271441-.692207,4.041817-2.481376,4.71-4.76-1.358997-.645333-2.602329-1.51026-3.68-2.56c1.72007-.426988,3.5256-.361143,5.21.19.961981-1.495227,1.108502-3.373695.39-5-1.95467-.870574-4.153997-1.022862-6.21-.43c1.725172-1.509116,3.999844-2.233534,6.28-2c.162034-3.28609-.351897-6.570481-1.51-9.65-4.27.22-8.42,2.06-9.81,3.39-.067347,1.528209.091023,3.057996.47,4.54-1.126019-.572986-1.880609-1.682233-2-2.94-2.67.67-3.82,2-4.24,3c.391897,1.899812,1.266683,3.666603,2.54,5.13-1.626773-.634665-2.909125-1.927915-3.53-3.56-2.46,5.92-1.99,12.55,4.65,13.12Z" opacity="0.2"/><path d="M316.9,317.14c1.863787,1.568578,4.371248,2.138625,6.73,1.53c2.271441-.692207,4.041817-2.481376,4.71-4.76-1.358997-.645333-2.602329-1.51026-3.68-2.56c1.72007-.426988,3.5256-.361143,5.21.19.961981-1.495227,1.108502-3.373695.39-5-1.95467-.870574-4.153997-1.022862-6.21-.43c1.725172-1.509116,3.999844-2.233534,6.28-2c.162034-3.28609-.351897-6.570481-1.51-9.65-4.27.22-8.42,2.06-9.81,3.39-.067347,1.528209.091023,3.057996.47,4.54-1.126019-.572986-1.880609-1.682233-2-2.94-2.67.67-3.82,2-4.24,3c.391897,1.899812,1.266683,3.666603,2.54,5.13-1.626773-.634665-2.909125-1.927915-3.53-3.56-2.46,5.92-1.99,12.55,4.65,13.12Z" opacity="0.3" fill="#fff"/><path d="M316.75,317.78v0c-.135682-.015621-.236149-.13356-.23-.27.41-5.4,3.5-14.31,10.87-21.66.043583-.047825.105295-.075081.17-.075081s.126417.027256.17.075081c.048339.045367.075759.108707.075759.175s-.02742.129633-.075759.175c-7.26,7.25-10.31,16-10.71,21.35-.005097.066386-.036465.127996-.08715.171172s-.116498.06435-.18285.058828Z" fill="#f5f5f5"/><path d="M318.77,320c-1.735858,1.438042-4.058007,1.952164-6.23865,1.381232s-3.952912-2.157047-4.76135-4.261232c1.230795-.562178,2.356886-1.329814,3.33-2.27-1.627783-.385863-3.328687-.334111-4.93.15-.986448-1.255451-1.247894-2.934008-.69-4.43c1.862284-.770631,3.929338-.89388,5.87-.35-1.731075-1.345919-3.904822-1.991975-6.09-1.81-.372714-2.898534-.092545-5.84373.82-8.62c4.08.25,8.11,1.94,9.51,3.13.155136,1.333536.101152,2.683116-.16,4c1.00629-.474381,1.657115-1.477736,1.68-2.59c2.56.62,3.71,1.81,4.16,2.72-.243559,1.67469-.957969,3.245697-2.06,4.53c1.454112-.516441,2.592304-1.669366,3.09-3.13c2.7,5.24,2.64,11.09-3.53,11.55Z" fill="#972dc2"/><path d="M318.77,320c-1.735858,1.438042-4.058007,1.952164-6.23865,1.381232s-3.952912-2.157047-4.76135-4.261232c1.230795-.562178,2.356886-1.329814,3.33-2.27-1.627783-.385863-3.328687-.334111-4.93.15-.986448-1.255451-1.247894-2.934008-.69-4.43c1.862284-.770631,3.929338-.89388,5.87-.35-1.731075-1.345919-3.904822-1.991975-6.09-1.81-.372714-2.898534-.092545-5.84373.82-8.62c4.08.25,8.11,1.94,9.51,3.13.155136,1.333536.101152,2.683116-.16,4c1.00629-.474381,1.657115-1.477736,1.68-2.59c2.56.62,3.71,1.81,4.16,2.72-.243559,1.67469-.957969,3.245697-2.06,4.53c1.454112-.516441,2.592304-1.669366,3.09-3.13c2.7,5.24,2.64,11.09-3.53,11.55Z" opacity="0.3" fill="#fff"/><path d="M318.93,320.62c-.120057-.003264-.220828-.091439-.24-.21-.7-4.7-4.12-12.5-11.44-19-.095286-.097211-.095286-.252789,0-.35.045367-.048339.108707-.075759.175-.075759s.129633.02742.175.075759c7.42,6.6,10.89,14.53,11.6,19.32.017902.13494-.075445.259403-.21.28Z" fill="#fff"/><path d="M247.22,270.75l34.07-19.81c2.201185-1.110577,4.798815-1.110577,7,0L344.5,283.4c.776196.354517,1.321386,1.076424,1.45,1.92v0v2.16v0c.02018.149321.02018.300679,0,.45-.004723.016332-.004723.033668,0,.05-.059639.169396-.140267.330651-.24.48v.05c-.120264.173244-.261317.331088-.42.47v0c-.191023.17045-.398739.321211-.62.45l-34.08,19.8c-.317039.178598-.652281.322752-1,.43-.12.05-.24.08-.37.12s-.33.09-.5.12-.4.08-.6.1h-.15c-.276457.015219-.553543.015219-.83,0h-.13c-.28,0-.56,0-.83,0h-.12c-.269151-.031145-.536268-.07789-.8-.14h-.14c-.230202-.057994-.457184-.128091-.68-.21h-.13c-.260129-.097643-.511108-.218113-.75-.36L247.23,276.8c-.225911-.131263-.440043-.281824-.64-.45l-.16-.18c-.10209-.101623-.198885-.208431-.29-.32-.040633-.071282-.077354-.144724-.11-.22-.066233-.101303-.123133-.208409-.17-.32c0-.07,0-.15,0-.23-.010431-.106412-.010431-.213588,0-.32v-2c.0683-.862551.584727-1.625799,1.36-2.01Z" fill="#e0e0e0"/><path d="M346,285.32c.015381.208575-.00491.418245-.06.62-.055565.171094-.136464.332892-.24.48v.05c-.117667.175277-.259005.333442-.42.47v0c-.191023.17045-.398739.321211-.62.45l-34.08,19.8c-.319142.174312-.653945.318277-1,.43l-.37.11-.5.13c-.2,0-.4.08-.6.1h-.15c-.27,0-.55,0-.83.05h-.13c-.277375-.001407-.554462-.018099-.83-.05h-.17c-.269151-.031145-.536268-.07789-.8-.14h-.14c-.230202-.057994-.457184-.128091-.68-.21h-.13c-.258336-.101798-.508988-.22211-.75-.36L247.23,274.8c-.225911-.131263-.440043-.281824-.64-.45-.06-.05-.1-.11-.16-.17-.102252-.104963-.199046-.215108-.29-.33-.040555-.067894-.077279-.138003-.11-.21-.064394-.102379-.121212-.209331-.17-.32c0-.08,0-.16,0-.23-.009662-.106448-.009662-.213552,0-.32v2c-.010431.106412-.010431.213588,0,.32c0,.08,0,.16,0,.23.046867.111591.103767.218697.17.32.032646.075276.069367.148718.11.22.091115.111569.18791.218377.29.32l.16.18c.199957.168176.414089.318737.64.45l56.22,32.45c.238892.141887.489871.262357.75.36h.13c.222816.081909.449798.152006.68.21h.14c.263732.06211.530849.108855.8.14h.12c.27,0,.55,0,.83,0h.1c.276457.015219.553543.015219.83,0h.15c.2,0,.4-.06.6-.1s.34-.08.5-.12.25-.07.37-.12c.347719-.107248.682961-.251402,1-.43l34.08-19.8c.221261-.128789.428977-.27955.62-.45v0c.158683-.138912.299736-.296756.42-.47v-.05c.099733-.149349.180361-.310604.24-.48-.004723-.016332-.004723-.033668,0-.05.02018-.149321.02018-.300679,0-.45v0-2.16Z" opacity="0.3"/><path d="M250.55,272.77l54.61,31.53.22.11h.11c.11,0,.21.07.43.12.0988.025592.198957.045623.3.06h.21c.17644.012669.35356.012669.53,0h.04c.186437.013083.373563.013083.56,0l.35-.06.45-.12c.129429-.033403.25385-.083844.37-.15l17.57-10.22-56.4-32.52Z" fill="#e0e0e0"/><path d="M307,304.68v0Z" fill="#4a312c"/><path d="M302.5,264.1l-10.27,6c-.34499.167086-.56411.516677-.56411.9s.21912.732914.56411.9l15.36,8.87c.532717.305201,1.187283.305201,1.72,0l10.27-6c.34499-.167086.56411-.516677.56411-.9s-.21912-.732914-.56411-.9l-15.37-8.87c-.529076-.305462-1.180924-.305462-1.71,0Z" fill="#e0e0e0"/><path d="M250.55,272.77l54.61,31.53.22.11h.11c.11,0,.21.07.43.12.0988.025592.198957.045623.3.06h.21c.17644.012669.35356.012669.53,0h.04c.186437.013083.373563.013083.56,0l.35-.06.45-.12c.129429-.033403.25385-.083844.37-.15l17.57-10.22-56.4-32.52Z" opacity="0.2"/><path d="M302.5,264.1l-10.27,6c-.34499.167086-.56411.516677-.56411.9s.21912.732914.56411.9l15.36,8.87c.532717.305201,1.187283.305201,1.72,0l10.27-6c.34499-.167086.56411-.516677.56411-.9s-.21912-.732914-.56411-.9l-15.37-8.87c-.529076-.305462-1.180924-.305462-1.71,0Z" opacity="0.2"/><path d="M327.85,272.94c-3.12,4.21-.55,10.84,3.47,11.6c6.78-3.83,1.94-10.97-3.47-11.6Z" fill="#4a312c"/><path d="M313.45,274.57l-6.31,2.75c-.628268.273005-1.01106.917707-.95,1.6v0c.072411.819216.757593,1.448022,1.58,1.45h6Z" fill="#f28f8f"/><path d="M322.53,275.51l-5.62-2.61c-1.403846-.654835-3.066086-.376469-4.18.7l-4,3.83c-.536741.516459-.870295,1.208406-.94,1.95l-.4,4.09c-.046285.710632.420089,1.353471,1.11,1.53v0c.415527.103664.855586.02225,1.206523-.223214s.578339-.630909.623477-1.056786l.35-3.58l2.09-2.33-1.15,1.79c-.307736.471668-.461476,1.027229-.44,1.59l.1,3.08c.03156.978729.60628,1.858166,1.49,2.28l4.87,2.33c.835806.401155,1.821684.328831,2.59-.19.740126-.498371,1.448189-1.042778,2.12-1.63.323114-.393706.393013-.937363.18-1.4l2.23-1.62l44.94-7.69-10.83-14.07Z" fill="#ffdbb4"/><path d="M322.53,285.7c-.949255.495259-2.030932.677289-3.09.52.210037-1.00299.247238-2.034485.11-3.05.516703.666975.829283,1.469264.9,2.31.644492.320481,1.382725.398564,2.08.22Z" fill="#f28f8f"/><path d="M383.07,212.73c-4.180241-.298153-7.953978,2.495007-8.89,6.58l-9.38,40.86-5.93,2.15-31,10.62c5.28,4,3.47,11.6,3.47,11.6l38.38-8.15c6.694819-1.151321,11.976347-6.32929,13.26-13l7.85-40.57c.461086-2.389884-.124461-4.862771-1.608286-6.792126s-3.72355-3.130049-6.151714-3.297874Z" fill="#455a64"/><path d="M364.8,260.17c4.14,0,7.39,4.28,7.8,5.86.81-8.35-4-8.68-7.46-7.34Z" opacity="0.1"/><path d="M341.16,211.53c-6.787671-.156186-13.386538,2.242105-18.49,6.72L299.35,238.7c-1.506463,1.322004-2.822328,2.846523-3.91,4.53l-12.16,18.83l12.19,8.09l13-18.79L327.61,238c1.63-5.77,5.67-14.5,15.82-26.46Z" fill="#455a64"/><path d="M321.7,242.16l5.91-4.12c1.29-4.58,4.12-11,10.29-19.47-7.364373,6.316421-12.949089,14.448734-16.2,23.59Z" opacity="0.2"/><path d="M238,231.05v0l1.35-.67v0c.48855-.214401,1.050376-.180914,1.51.09l56.6,32.91c1.782253,1.032396,3.002473,2.814946,3.32,4.85l5.82,37c.115856.741408-.271048,1.470418-.95,1.79v0l-1.3.64v0c-.47872.190074-1.01874.145689-1.46-.12l-56.6-32.91c-1.765859-1.034767-2.97364-2.807892-3.29-4.83l-5.82-37c-.123127-.697897.204923-1.398004.82-1.75Z" fill="#e0e0e0"/><path d="M268.91,264.92c2.900871,1.814611,4.931867,4.738234,5.62,8.09.37,2.89-1.54,4-4.28,2.38-2.898983-1.821214-4.928901-4.746897-5.62-8.1-.37-2.88,1.55-3.95,4.28-2.37Z" fill="#fff"/><path d="M305.48,305.81l-5.82-37c-.317527-2.035054-1.537747-3.817604-3.32-4.85l-56.6-32.91c-.525423-.305754-1.174577-.305754-1.7,0v0l1.35-.67v0c.48855-.214401,1.050376-.180914,1.51.09l56.6,32.91c1.782253,1.032396,3.002473,2.814946,3.32,4.85l5.82,37c.115856.741408-.271048,1.470418-.95,1.79v0l-1.3.64v0c.756087-.280137,1.211374-1.052872,1.09-1.85Z" opacity="0.3"/></g><path d="M337.190001,172.620002q.536848,5.416166,11.07797-2.533834l-.255658-7.79L337.19,166.63q-.536846.573836.000001,5.990002Z" transform="translate(-1.267971-1.056168)" fill="#8c5f3c" stroke="#8c5f3c"/></svg>
